<?xml version="1.0" encoding="UTF-8"?>
<svg id="_レイヤー_1" data-name="レイヤー_1" xmlns="http://www.w3.org/2000/svg" version="1.1" viewBox="0 0 360 360">
  <!-- Generator: Adobe Illustrator 29.6.1, SVG Export Plug-In . SVG Version: 2.1.1 Build 9)  -->
  <g>
    <path d="M97.79,152.84c0-16.3,16.21-29.53,36.22-29.53,20.01,0,36.22,13.22,36.22,29.53,0,16.32-16.22,29.53-36.22,29.53s-36.22-13.23-36.22-29.53" fill="#fff"/>
    <g>
      <path d="M164.95,232.68c0,18.28-13.57,33.09-30.31,33.09s-30.31-14.82-30.31-33.09c0-18.28,13.57-33.09,30.31-33.09,16.74,0,30.31,14.82,30.31,33.09Z" fill="#fff"/>
      <path d="M212.83,74.89c.45-3.6.91-8.33,1.09-13.6.05-1.46.08-2.96.08-4.49,0-.95-.01-1.9-.03-2.87-.07-3.59-.34-7.18-.79-10.74-.55-4.5-1.56-8.93-3.02-13.22-1.97-6.35-5.85-11.94-11.11-16.01C179.21-.33,153.17.16,153.17.16c0,0-32.39-4.35-49.05,32-2.02,4.45-3.67,9.06-4.94,13.79-.88-.02-1.73-.04-2.56-.04h-.86c-4.83-.06-9.66.25-14.44.93-.3.05-.58.1-.87.15-12.71,2.18-12.18,6.96,4.09,7.66l.37.02.44.02c3.11.11,6.99.18,11.46.29l1.41.03.8.02c4.11.1,8.68.24,13.54.47,22.22,1,50.96,3.73,74.46,12.69,4.53,1.71,8.93,3.73,13.18,6.06,4.09,2.23,7.96,4.84,11.55,7.81,0,0,.54-2.74,1.09-7.15M161.8,25.49c.22-.02.43-.03.75-.05-.19.35-.34.66-.52.96-.96,1.64-1.93,3.27-2.87,4.89-.09.15-.17.3-.23.46-.01.03-.03.06-.03.1-.09.33.1.67.43.76.82.38,1.63.79,2.45,1.18l-.02.08c-.44.19-.9.36-1.33.56-4.05,1.97-8.03,3.89-11.92,5.77-.75.36-1.09.83-.95,1.49.16.79.28,1.58.43,2.44-.84-.16-1.61-.3-2.37-.45l-8.4-1.63c-.55-.1-1.07.13-1.12.53l-.46,3.55-.69,5.29-1.73-.2c.1-.56.16-.95.27-1.46l.75-3.53c.26-1.2.51-2.39.77-3.61.11-.54-.24-.85-.94-.85l-7.77-.06h-2.13c-.16,0-.33,0-.55-.02.4-.72.76-1.4,1.15-2.08.03-.04.06-.09.09-.14.31-.54.12-1.23-.43-1.54-2.91-2.5-5.8-4.99-8.68-7.48-.13-.11-.26-.21-.44-.37.79-.23,1.51-.45,2.24-.66s.89-.4.79-1.04c-.16-.99-.33-1.99-.5-2.98-.14-.85-.29-1.7-.44-2.54-.02-.1-.02-.2-.03-.36.78.2,1.52.37,2.25.56,1.17.3,2.34.61,3.53.91.53.22,1.13-.02,1.37-.54.37-.72.74-1.45,1.15-2.25.13.15.24.25.33.36l3.86,4.62c.3.37.62.77,1.28.59s.65-.7.64-1.13c-.06-1.61-.16-3.22-.24-4.84-.09-1.65-.18-3.32-.26-4.99,0-.1.01-.2.03-.31.2.09.34.15.48.22.81.43,1.61.88,2.43,1.31,0,0,.01,0,.02.01.68.46,1.61.28,2.07-.41,1.72-2.05,3.45-4.12,5.25-6.26.56,1.27,1.1,2.51,1.64,3.75.42.96.83,1.92,1.24,2.87.38.88,1,1.06,2.16.65,1.12-.39,2.23-.78,3.49-1.22-.21.49-.37.91-.55,1.33-1.31,2.98-2.59,5.92-3.86,8.82-.07.15-.12.31-.13.47-.02.32-.03.66.41.81.41.12.85.04,1.18-.22.93-.64,1.85-1.3,2.77-1.95,1.22-.86,2.43-1.72,3.66-2.6.08-.05.16-.09.25-.12l.33,2.38c.1.69.49.92,1.39.83l6.25-.63" fill="gold"/>
      <path d="M229.89,109.98c11.32-.04,21.67-6.38,26.85-16.44,7.67-14.89,1.81-33.17-13.08-40.83-4.26-2.2-8.99-3.35-13.78-3.34-.74,0-1.48.04-2.21.09-4.87.35-9.58,1.88-13.72,4.47.05,2.45.04,4.91-.04,7.36-.16,4.55-.52,9.08-1.09,13.6-.55,4.41-1.09,7.15-1.09,7.15-3.59-2.97-7.46-5.58-11.55-7.81-4.25-2.33-8.65-4.35-13.18-6.06-23.5-8.96-52.24-11.69-74.46-12.69-4.86-.22-9.43-.36-13.54-.46l-.8-.02-1.4-.03c-4.47-.11-8.35-.18-11.46-.29h-.44s-.37-.03-.37-.03c.25,1.12.37,2.27.37,3.42,0,.99-.1,1.98-.28,2.96-6.17,3.6-11.86,7.96-16.95,12.97-3.85-.32-7.44-2.02-10.13-4.79-6.13-6.32-5.97-16.42.35-22.55,6.32-6.13,16.42-5.97,22.55.35.28-.05.57-.1.88-.15,4.78-.67,9.61-.98,14.44-.92h.86c-3.18-7.22-9.05-12.92-16.37-15.88-15.51-6.27-33.15,1.22-39.42,16.73-6.27,15.51,1.22,33.15,16.73,39.42-2.53,3.75-4.73,7.72-6.59,11.85-16.22,36.19-3.95,80.6,25.84,97.01,4.24,2.33,8.79,4.06,13.52,5.13-6.08,2.3-12.95,3.92-18.94,1.42-.78-.33-1.54-.73-2.26-1.18-3.54-2.19-6.62-5.44-10.71-5.82-3.2,2.83-3.62,7.9-2.07,11.89.45,1.14,1.02,2.22,1.7,3.24,1.76,2.51,3.82,4.78,6.14,6.77,1.08.98,2.21,1.91,3.39,2.78,7.41,5.2,16.12,8.26,25.16,8.84l.11,2.65c.46,11.28.81,22.57,1.04,33.86.19,9.27-11.48,22.91-8.97,30.96,0,0,9.16-.19,21.2,0,0,0,21.67-19.56,27.92-20.37,7.09-.92,13.45,20.37,13.45,20.37h26.74l-6.33-2.99,7.04-16.23v-4.75s17.79-23.8,5.4-47.23c15,5.28,32.76.33,38.92-5.79l5.61-16.32,6.7-16.89c-5.42,5.86-31.92,17.2-36.6,17.5-5.61.36-12.89-2.94-18.43-4.34,33.76-8.04,49.93-30.57,49.93-69,0-6.79-.84-13.56-2.48-20.15,1.95.39,3.94.59,5.93.59M134.17,261.09c-14.13,0-25.76-11.77-27.3-26.92-.12-1.14-.18-2.28-.18-3.42,0-1.19.07-2.37.2-3.55,1.6-15.08,13.2-26.78,27.29-26.78,15.18,0,27.48,13.58,27.48,30.34,0,16.76-12.3,30.34-27.48,30.34M104.33,112.02c4.86.01,8.79,3.96,8.78,8.81,0,.01,0,.03,0,.04-.02,4.87-3.98,8.8-8.84,8.78s-8.8-3.98-8.78-8.84,3.98-8.8,8.84-8.78M98.68,152.84c0-15.9,15.81-28.8,35.33-28.8,19.52,0,35.33,12.89,35.33,28.8,0,15.91-15.82,28.8-35.33,28.8-19.51,0-35.33-12.9-35.33-28.8M166.13,112.37s0,0,0,0c4.86,0,8.79,3.96,8.78,8.81,0,0,0,.02,0,.03-.01,4.87-3.97,8.8-8.84,8.79-4.87-.01-8.8-3.97-8.79-8.84.01-4.87,3.97-8.8,8.84-8.79M242.39,69.7c2.24,2.84,3.45,6.35,3.44,9.97-.03,8.83-7.22,15.96-16.05,15.93s-15.96-7.22-15.93-16.05c.03-8.83,7.22-15.96,16.05-15.93.12,0,.22.02.34.02,4.76.1,9.22,2.33,12.15,6.07" fill="#ef8337"/>
      <path d="M229.89,95.59c8.54-.1,15.5-6.91,15.78-15.45.29-8.82-6.62-16.21-15.44-16.5-.11,0-.22-.02-.34-.02-8.82,0-15.98,7.15-15.98,15.98,0,8.83,7.15,15.98,15.98,15.98" fill="#6a3906"/>
      <path d="M67.67,73.97c5.09-5.01,10.78-9.37,16.95-12.97.4-2.11.37-4.27-.09-6.37-16.27-.7-16.8-5.49-4.09-7.66-2.72-2.83-6.38-4.57-10.29-4.87-8.8-.68-16.49,5.89-17.17,14.69-.68,8.8,5.89,16.49,14.69,17.17" fill="#6a3906"/>
      <path d="M166.13,130s0,0,0,0c4.86,0,8.79-3.96,8.78-8.81,0,0,0-.02,0-.03-.02-4.87-3.98-8.8-8.84-8.78-4.87.02-8.8,3.98-8.78,8.84.02,4.87,3.98,8.8,8.84,8.78" fill="#6a3906"/>
      <path d="M104.33,129.65c4.86,0,8.79-3.95,8.78-8.81,0,0,0-.02,0-.03-.02-4.87-3.98-8.8-8.84-8.78s-8.8,3.98-8.78,8.84c.02,4.87,3.98,8.8,8.84,8.78" fill="#6a3906"/>
      <path d="M135.81,167.5c-1.96-.39-3.87.87-4.27,2.84-.39,1.96.87,3.87,2.84,4.27,1.07.21,2.16.32,3.26.32,5.69-.2,11.14-2.32,15.47-6.01,6.37-5.14,10.04-12.91,9.97-21.1,0-.06,0-.11,0-.17-.05-1.99-1.7-3.57-3.69-3.52s-3.57,1.7-3.52,3.69c.04,6.01-2.65,11.71-7.32,15.49-3.96,3.25-9.08,4.94-12.73,4.2" fill="#6a3906"/>
      <path d="M132.17,137.45h0c0-5.95-4.8-10.77-10.74-10.78-5.92,0-10.72,4.79-10.74,10.71-.02,5.93,4.77,10.76,10.71,10.78,5.93.02,10.76-4.77,10.78-10.71" fill="#6a3906"/>
      <path d="M159.12,31.33c.95-1.62,1.91-3.25,2.87-4.89.18-.3.33-.61.52-.96-.32.02-.54.03-.75.06-2.1.21-4.19.42-6.25.63-.91.09-1.3-.15-1.39-.83-.11-.78-.22-1.56-.33-2.38-.08.04-.17.08-.25.12l-3.66,2.6c-.93.66-1.85,1.31-2.77,1.95-.34.26-.78.35-1.18.22-.44-.15-.44-.49-.41-.81.02-.16.07-.32.13-.47,1.27-2.9,2.56-5.84,3.86-8.83.18-.41.35-.83.55-1.32-1.25.44-2.37.82-3.49,1.21-1.17.41-1.78.23-2.17-.65-.42-.95-.82-1.91-1.24-2.87l-1.64-3.75-5.27,6.3s0,.01-.01.02c-.47.68-1.4.85-2.07.38-.82-.43-1.62-.87-2.43-1.3-.14-.07-.29-.13-.48-.22-.01.1-.02.2-.02.3.08,1.67.17,3.33.26,4.99.09,1.62.19,3.23.25,4.84.01.43,0,.96-.64,1.13s-.98-.23-1.28-.59c-1.28-1.54-2.57-3.08-3.86-4.62-.09-.11-.19-.21-.33-.36-.41.8-.78,1.53-1.15,2.26-.24.52-.84.76-1.37.53l-3.53-.91c-.73-.19-1.46-.37-2.25-.56.01.17.01.27.03.37.15.85.3,1.7.44,2.54.17,1,.35,1.99.5,2.98.1.64-.06.83-.79,1.05s-1.45.43-2.24.66c.18.15.31.26.44.37l8.68,7.48s.1.06.14.1c.49.38.57,1.09.19,1.58-.38.68-.76,1.36-1.15,2.08.23,0,.39.02.56.02h2.12c2.57.02,5.16.05,7.77.06.7,0,1.06.31.94.85-.26,1.21-.51,2.43-.77,3.61l-.75,3.53c-.11.52-.17.9-.27,1.46l1.72.2.69-5.29c.16-1.18.3-2.37.46-3.55.05-.39.58-.63,1.12-.53l8.4,1.63,2.37.45c-.15-.86-.27-1.65-.43-2.44-.13-.66.2-1.13.95-1.49,3.89-1.88,7.86-3.81,11.92-5.77.43-.21.89-.38,1.33-.56l.02-.08c-.81-.39-1.62-.8-2.45-1.18-.03,0-.06-.02-.09-.03-.31-.14-.45-.51-.31-.82.06-.16.14-.32.23-.46" fill="#6a3906"/>
      <g>
        <path d="M269.45,94.27l2.31,1.08,1.38.64,12.94,6.06,1.37.64,2.31,1.08,1.99.93c1.57-.24,3.13-.63,4.66-1.19,5.14-1.86,9.39-5.33,12.22-9.84l-1.04-.49-1.04-.49-39.35-18.43-1.04-.49-1.04-.48c-1.66,5.1-1.6,10.56.26,15.68.55,1.53,1.25,2.98,2.07,4.33l1.99.93Z" fill="#6a3906"/>
        <path d="M268.81,70.03l40.02,18.74,1.03.48,1.03.48,21.08-35.69c.28-.48.18-1.09-.25-1.45-.42-.36-1.04-.35-1.47.01l-8.03,6.92,5.13-7.57c.33-.48.24-1.13-.21-1.5-.44-.37-1.1-.35-1.51.05l-8.24,7.94,3.99-9.53c.24-.56-.02-1.21-.56-1.47l-6-2.81c-.5-.23-1.1-.07-1.42.38l-3.57,5.2,1.69-6.08c.15-.53-.11-1.1-.61-1.33l-10.96-5.13c-.52-.24-1.13-.06-1.44.41l-3.21,5.01,1.33-6c.11-.52-.15-1.05-.63-1.27l-4.77-2.23c-.29-.13-.62-.16-.91-.02-.29.12-.52.36-.63.65l-2.73,7.28,1.13-8.88c.07-.58-.31-1.13-.88-1.25-.58-.12-1.15.21-1.32.77l-2,6.42-.46-7.98c-.03-.54-.43-.98-.96-1.06-.19-.03-.38,0-.55.05-.3.11-.56.35-.68.67l-14.47,38.81,1.03.48,1.03.48Z" fill="#6a3906"/>
        <path d="M279.8,113.48c.89.42,2.05,0,2.47-.89l2.8-5.99-1.68-.79-1.68-.79-8.05-3.77-1.68-.79-1.68-.79-2.8,5.98c-.21.45-.23.96-.06,1.42s.51.84.96,1.05l11.42,5.35Z" fill="#6a3906"/>
        <path d="M210.54,239.47l5.41,2.53c.57.26,1.24.02,1.51-.55l58.97-125.92c.27-.57.02-1.24-.55-1.51l-5.41-2.53c-.27-.13-.58-.14-.87-.04s-.51.31-.64.58l-58.97,125.92c-.13.27-.14.58-.04.87s.31.51.58.64Z" fill="#6a3906"/>
      </g>
      <path d="M223.77,187.55c-2.83,2.14-5.11,4.91-6.67,8.09-.58,1.14-1.07,2.32-1.48,3.53-1.54,4.31-1.83,8.97-.83,13.44.06.25.11.51.18.75.87,3.84,3.58,7,7.23,8.45.83.28,1.7.45,2.58.5,3,.08,5.94-.89,8.3-2.74,7.69-6.17,11.12-16.23,8.8-25.81-.51-1.83-1.37-3.54-2.54-5.04-1.2-1.57-2.83-2.75-4.69-3.41-3.77-1.1-7.84-.26-10.88,2.24" fill="#ef8337"/>
    </g>
  </g>
  <rect x="8.18" y="295.58" width="343.65" height="64.42" rx="8.7" ry="8.7" fill="#6a3906"/>
  <g>
    <path d="M40.57,321.86l-.34.34-5.33-5.31-5.3,5.31-.34-.34,5.3-5.31-5.27-5.27.34-.34,5.27,5.27,5.27-5.27.34.34-5.27,5.27,5.33,5.31ZM32.63,316.55c0,.69-.58,1.26-1.26,1.26s-1.26-.58-1.26-1.26.58-1.26,1.26-1.26,1.26.58,1.26,1.26ZM36.15,313.02c0,.69-.58,1.26-1.26,1.26s-1.26-.58-1.26-1.26.58-1.27,1.26-1.27,1.26.58,1.26,1.27ZM36.15,320.08c0,.69-.58,1.26-1.26,1.26s-1.26-.58-1.26-1.26.58-1.27,1.26-1.27,1.26.58,1.26,1.27ZM39.68,316.55c0,.69-.58,1.26-1.26,1.26s-1.26-.58-1.26-1.26.58-1.26,1.26-1.26,1.26.58,1.26,1.26Z" fill="#fff"/>
    <path d="M49.45,314.43c-.45.39-.93.74-1.42,1.07,1.74,1.49,2.44,2.99,2.44,4.71,0,2.05-.56,2.74-1.85,2.74-.37,0-.73-.04-1.05-.13-.3-.07-.42-.28-.42-.46,0-.28.25-.56.65-.46.27.06.52.1.82.1.6,0,.86-.2.86-1.78,0-.34-.03-.69-.1-1.03-1.63,1.35-3.91,2.47-6,3.01-.35.08-.59-.15-.59-.41,0-.18.13-.37.39-.44,2.22-.6,4.44-1.76,5.9-3.11-.11-.3-.27-.58-.45-.86-1.57,1.1-3.3,1.9-5.02,2.39-.06.01-.13.03-.18.03-.28,0-.46-.22-.46-.44,0-.18.13-.38.41-.45,1.66-.48,3.25-1.17,4.71-2.26-.22-.27-.46-.51-.72-.74-1.14.66-2.36,1.15-3.67,1.5-.06.01-.11.03-.17.03-.27,0-.44-.2-.44-.41,0-.18.13-.38.41-.45,1.74-.46,3.27-1.19,4.57-2.15h-2.77c-.28,0-.42-.21-.42-.42s.14-.42.42-.42h7.42c.28,0,.42.21.42.42s-.14.42-.42.42h-2.09c.17.86.48,1.69.87,2.46.72-.42,1.46-.96,2.14-1.59.13-.13.27-.17.41-.17.28,0,.52.21.52.48,0,.13-.07.28-.22.41-.77.65-1.62,1.21-2.4,1.63.77,1.22,1.78,2.22,3.02,3.04.22.15.32.34.32.52,0,.3-.24.55-.55.55-.11,0-.25-.04-.38-.14-.44-.32-.87-.66-1.26-1.03-.89-.84-1.63-1.83-2.19-2.91-.52-1.03-.89-2.12-1.14-3.25h-.3ZM53.36,311.42c1.07,0,1.46.48,1.46,1.18v.94c0,.3-.25.44-.49.44-.25,0-.51-.14-.51-.44v-.77c0-.32-.13-.49-.66-.49h-8.35c-.53,0-.66.17-.66.46v.94c0,.3-.25.43-.49.43-.25,0-.51-.14-.51-.43v-1.08c0-.7.39-1.18,1.46-1.18h3.84v-.98c0-.3.25-.45.49-.45.25,0,.49.15.49.45v.98h3.92Z" fill="#fff"/>
    <path d="M58.57,319.97c.25,0,.51.18.51.48,0,.08-.03.18-.08.3-.32.58-.89,1.35-1.38,1.87-.14.14-.28.2-.41.2-.27,0-.48-.22-.48-.48,0-.13.04-.25.15-.37.48-.51.91-1.1,1.26-1.74.1-.18.27-.25.42-.25ZM58.83,319.46c-.91-.01-1.38-.34-1.39-1.31v-6.01c0-.93.45-1.32,1.39-1.32h1.53c.94,0,1.39.39,1.39,1.32v6.01c0,.91-.45,1.31-1.39,1.31h-1.53ZM60.8,312.25c0-.48-.14-.59-.58-.59h-1.25c-.44,0-.58.11-.58.59v1.12h2.4v-1.12ZM58.4,315.93h2.4v-1.73h-2.4v1.73ZM60.23,318.62c.44-.01.58-.13.58-.59v-1.27h-2.4v1.27c0,.48.14.59.58.59h1.25ZM61.91,321.48c.06.11.08.21.08.31,0,.31-.25.52-.51.52-.15,0-.31-.08-.41-.28-.25-.48-.6-1.03-.9-1.42-.08-.1-.11-.21-.11-.29,0-.24.21-.41.45-.41.14,0,.28.06.39.18.35.39.76.96,1,1.39ZM66.83,310.73c0-.28.25-.42.49-.42.25,0,.49.14.49.42v3.13h1.53c.28,0,.41.23.41.45s-.13.45-.41.45h-1.53v6.52c0,1.05-.46,1.43-1.42,1.43-.35,0-.66-.04-.97-.11-.31-.07-.44-.28-.44-.49,0-.28.22-.55.59-.48.28.06.56.08.76.08.32,0,.49-.13.49-.49v-2.88l.06-2.53c-.77,1.66-2.16,3.44-3.75,4.73-.1.08-.21.11-.31.11-.27,0-.49-.23-.49-.48,0-.14.07-.28.22-.41,1.52-1.17,2.98-3.12,3.84-5.02h-3.39c-.27,0-.41-.22-.41-.45s.14-.45.41-.45h3.82v-3.13Z" fill="#fff"/>
    <path d="M71.38,317.63c0-2.97,2.49-5.64,6.24-5.64,3.22,0,5.16,2.01,5.16,4.67,0,2.46-1.53,4.3-3.75,4.99-.08.03-.17.04-.24.04-.37,0-.58-.28-.58-.58,0-.25.14-.49.49-.61,1.93-.6,2.94-1.87,2.94-3.85s-1.38-3.67-3.94-3.71c-.15,2.59-.81,4.74-1.71,6.15-.77,1.22-1.48,1.56-2.28,1.56-1.19,0-2.33-1.05-2.33-3.04ZM74.96,313.59c-.6.34-1.12.79-1.53,1.34-.27.35-.48.73-.65,1.14-.2.52-.27,1.03-.3,1.57,0,1.17.58,1.91,1.22,1.91.45,0,.86-.18,1.32-.93.8-1.29,1.39-3.2,1.55-5.58-.58.1-1.11.27-1.62.55Z" fill="#fff"/>
    <path d="M86.11,315.45c-.25.52-.52,1-.77,1.39-.13.18-.29.27-.44.27-.22,0-.42-.17-.42-.41,0-.08.03-.18.1-.3.91-1.46,1.73-3.67,2.18-5.73.06-.28.27-.41.48-.41.3,0,.59.24.51.63-.25,1.12-.66,2.35-1.14,3.47.25,0,.49.15.49.45v7.83c0,.3-.24.44-.49.44-.24,0-.49-.14-.49-.44v-7.19ZM90.11,322.43c-1.05,0-1.5-.45-1.5-1.38v-5.51c0-.93.45-1.38,1.53-1.38h.93v-2.07h-2.33c-.27,0-.41-.23-.41-.44,0-.22.14-.43.41-.43h8.32c.28,0,.41.21.41.43,0,.21-.13.44-.41.44h-2.57v2.07h1.05c1.07,0,1.5.45,1.5,1.38v5.51c0,.93-.44,1.38-1.5,1.38h-5.42ZM91.07,321.58v-6.6h-.77c-.55,0-.7.2-.7.72v5.2c.01.51.15.69.67.69h.8ZM93.53,314.16v-2.07h-1.5v2.07h1.5ZM92.03,321.58h1.5v-6.6h-1.5v6.6ZM95.37,321.58c.53-.01.69-.15.69-.69v-5.2c0-.52-.14-.72-.69-.72h-.89v6.6h.89Z" fill="#fff"/>
    <path d="M100.17,315.45c-.25.52-.52,1-.77,1.39-.13.18-.29.27-.44.27-.22,0-.42-.17-.42-.41,0-.08.03-.18.1-.3.91-1.46,1.73-3.67,2.18-5.73.06-.28.27-.41.48-.41.3,0,.59.24.51.63-.25,1.12-.66,2.35-1.14,3.47.25,0,.49.15.49.45v7.83c0,.3-.24.44-.49.44-.24,0-.49-.14-.49-.44v-7.19ZM106.69,314.05c.07-.37.13-.74.18-1.11h-4.03c-.27,0-.41-.23-.41-.44,0-.22.14-.44.41-.44h4.16c.07-.46.13-.93.17-1.36.03-.31.27-.46.51-.46.25,0,.52.2.48.56-.04.39-.1.83-.17,1.26h3.02c.28,0,.41.21.41.44,0,.21-.13.44-.41.44h-3.16c-.07.37-.14.74-.21,1.11h1.18c.91,0,1.31.41,1.31,1.24v4.17c0,.83-.39,1.24-1.31,1.24h-2.6c-.91,0-1.31-.41-1.31-1.24v-4.17c0-.83.37-1.24,1.31-1.24h.48ZM102.56,314.68c0-.28.25-.42.51-.42s.51.14.51.42v6.27c0,.62.13.73.9.73h6.68c.25,0,.37.22.37.45s-.11.45-.37.45h-6.94c-1.21,0-1.64-.39-1.64-1.46v-6.44ZM109.13,315.41c0-.38-.13-.52-.66-.52h-1.93c-.53,0-.66.14-.66.52v.55h3.25v-.55ZM109.13,316.8h-3.25v1.05h3.25v-1.05ZM108.47,319.85c.41-.01.66-.04.66-.52v-.63h-3.25v.63c0,.41.13.52.66.52h1.93Z" fill="#fff"/>
    <path d="M116.63,315.67c.46-.25,1-.39,1.45-.39.89,0,1.49.28,1.86,1.36,1.1-.48,2.4-.94,3.85-1.39.07-.03.14-.03.21-.03.32,0,.51.24.51.49,0,.21-.13.42-.42.51-1.43.41-2.74.87-3.92,1.36.11.59.17,1.31.21,2.19.01.38-.25.58-.52.58-.24,0-.48-.15-.48-.49-.03-.76-.07-1.38-.14-1.85-1.7.83-2.21,1.69-2.21,2.33s.6,1.07,2.39,1.07c.96,0,1.85-.08,2.61-.24.45-.1.72.2.72.49,0,.24-.17.48-.52.53-.83.14-1.71.22-2.81.22-2.36,0-3.43-.79-3.43-2.02,0-1.01.65-2.15,3.08-3.34-.24-.77-.6-.93-1.21-.93-.77,0-1.7.45-2.88,1.38-.13.1-.27.15-.39.15-.28,0-.49-.22-.49-.48,0-.14.07-.31.24-.45,1.05-.83,1.97-2,2.63-3.15-.69.06-1.35.08-1.91.1-.38,0-.58-.24-.58-.49,0-.27.2-.52.59-.52.7,0,1.53-.04,2.39-.11.24-.56.45-1.12.63-1.69.08-.28.31-.41.52-.41.27,0,.52.18.52.48,0,.07,0,.13-.03.2-.14.45-.31.88-.51,1.31.77-.08,1.55-.2,2.21-.31.42-.08.66.2.66.46,0,.21-.14.42-.45.48-.89.17-1.91.31-2.92.41-.46.83-.98,1.57-1.48,2.15l.03.04Z" fill="#fff"/>
    <path d="M134.36,312.71c1.28,1.24,3.18,2.4,4.97,3.06.28.1.39.31.39.52,0,.25-.18.49-.49.49-.08,0-.18-.01-.28-.06-1.9-.76-3.89-2.09-5.23-3.58l.04,1.12v1.11c0,.31-.24.46-.48.46-.25,0-.49-.15-.49-.46v-1.12l.04-1.07c-1.34,1.55-3.19,2.85-5.16,3.68-.1.04-.18.06-.27.06-.28,0-.46-.21-.46-.44,0-.18.11-.37.38-.48,1.8-.74,3.57-1.98,4.76-3.3h-4.02c-.28,0-.42-.22-.42-.45s.14-.45.42-.45h4.72v-1.35c0-.28.24-.42.49-.42.24,0,.48.14.48.42v1.35h4.97c.28,0,.41.23.41.45s-.13.45-.41.45h-4.38ZM138.95,321.75c.27,0,.41.21.41.42s-.14.42-.41.42h-11.24c-.27,0-.39-.21-.39-.42s.13-.42.39-.42h2.11v-4.29c0-.8.44-1.21,1.55-1.21h3.95c1.11,0,1.55.41,1.55,1.21v4.29h2.09ZM135.88,317.61c0-.35-.14-.51-.74-.51h-3.58c-.6,0-.74.15-.74.51v.46h5.07v-.46ZM130.8,319.9h5.07v-1.01h-5.07v1.01ZM135.88,320.71h-5.07v1.04h5.07v-1.04Z" fill="#fff"/>
    <path d="M147.98,321.46c.49.08,1.03.11,1.63.11,1.24,0,2.3-.03,3.49-.13.38-.03.56.22.56.46s-.15.48-.48.49c-1.17.08-2.32.11-3.54.11-3.02,0-4.57-.73-5.61-2.64-.48,1.01-1.14,1.93-1.88,2.7-.13.13-.27.18-.39.18-.25,0-.46-.2-.46-.44,0-.13.04-.27.17-.39,1.19-1.31,2-2.83,2.35-4.67.04-.27.27-.39.49-.39.28,0,.58.21.51.62-.08.48-.21.94-.37,1.39.52,1.15,1.32,1.95,2.53,2.36v-5.64h-3.64c-.28,0-.42-.23-.42-.45s.14-.45.42-.45h8.28c.28,0,.42.23.42.45s-.14.45-.42.45h-3.63v2.22h3.36c.28,0,.42.23.42.45s-.14.45-.42.45h-3.36v2.74ZM151.8,311.73c1.07,0,1.46.48,1.46,1.18v1.1c0,.3-.25.44-.49.44-.25,0-.51-.14-.51-.44v-.91c0-.32-.13-.49-.66-.49h-8.4c-.53,0-.66.17-.66.46v1.08c0,.3-.25.44-.49.44-.25,0-.51-.14-.51-.44v-1.24c0-.7.39-1.18,1.46-1.18h3.85v-1.19c0-.3.25-.45.51-.45s.51.15.51.45v1.19h3.94Z" fill="#fff"/>
    <path d="M158.51,311.42c.03-.34.29-.49.56-.49.3,0,.59.2.56.56-.15,1.98-.28,4.62-.28,6.84,0,2.02.62,2.67,1.81,2.67s2.66-.55,4-2.21c.15-.18.32-.25.49-.25.28,0,.53.21.53.51,0,.15-.06.31-.2.48-1.5,1.85-3.23,2.57-4.79,2.57-2,0-2.98-1.01-2.98-3.78,0-2.22.11-4.86.28-6.9Z" fill="#fff"/>
    <path d="M177.31,313.12c-1.83.24-4.26.56-6.67.91-.46.07-.72-.23-.72-.53,0-.25.18-.51.58-.55,2.89-.38,6.44-.77,9.33-1.04.45-.04.69.24.69.52,0,.24-.17.48-.51.55-.48.07-1.07.25-1.59.55-2.32,1.32-2.87,3.09-2.87,4.3,0,1.63,1.26,2.78,3.23,2.96.41.04.6.3.6.56,0,.31-.25.6-.69.58-2.5-.17-4.24-1.84-4.24-3.99,0-1.5.7-3.32,2.85-4.79v-.03Z" fill="#fff"/>
    <path d="M187.77,320.86c.28,0,.48.21.48.44,0,.15-.1.31-.31.42-1.1.58-2.56,1.05-3.7,1.26-.38.07-.6-.17-.6-.42,0-.2.14-.39.44-.45,1.05-.23,2.42-.63,3.37-1.15.11-.07.22-.1.32-.1ZM185.55,313.66c-.73-.01-1.31-.14-1.32-.98v-.96c0-.66.34-.98,1.32-.98h8.11c.98,0,1.32.32,1.32.98v.96c0,.65-.34.98-1.32.98h-8.11ZM185.69,311.48c-.39,0-.52.1-.52.38v.68c0,.28.13.38.52.38h1.76v-1.43h-1.76ZM186.98,320.67c-.91-.01-1.59-.2-1.62-1.24v-3.65c0-.83.44-1.24,1.62-1.24h5.16c1.18,0,1.62.41,1.62,1.24v3.65c0,.81-.44,1.24-1.62,1.24h-5.16ZM192.75,315.88c0-.37-.15-.52-.76-.52h-4.85c-.6,0-.76.15-.76.52v.42h6.37v-.42ZM186.38,318.08h6.37v-.98h-6.37v.98ZM191.99,319.85c.41,0,.74-.03.76-.52v-.45h-6.37v.45c0,.37.15.52.76.52h4.85ZM188.37,311.48v1.43h2.28v-1.43h-2.28ZM194.95,322.02c.34.08.48.29.48.51,0,.24-.18.48-.51.48-.06,0-.11-.01-.18-.03-1.25-.31-2.6-.8-3.63-1.34-.21-.11-.31-.27-.31-.41,0-.21.21-.41.48-.41.1,0,.2.01.3.07.97.46,2.18.86,3.37,1.12ZM193.52,312.91c.3,0,.51-.04.51-.38v-.68c0-.28-.11-.38-.51-.38h-1.94v1.43h1.94Z" fill="#fff"/>
    <path d="M197.74,311.84c-.27-.03-.39-.23-.39-.44s.13-.42.39-.44h8.5c.28,0,.41.21.41.44,0,.21-.13.44-.41.44h-3.27v10.68c0,.3-.24.43-.49.43-.24,0-.49-.14-.49-.43v-2.71c-1.36.44-2.98.84-4.22,1.04-.38.04-.59-.22-.59-.49,0-.21.14-.42.43-.46.34-.04.68-.11,1.04-.17v-7.88h-.91ZM201.98,313.64v-1.8h-2.35v1.8h2.35ZM201.98,316.34v-1.88h-2.35v1.88h2.35ZM199.64,319.53c.79-.15,1.57-.37,2.35-.59v-1.78h-2.35v2.38ZM207.94,313.12c.97,0,1.52.32,1.52,1.1,0,.14-.03.28-.06.45-.31,1.57-.94,3.05-1.78,4.34.68.97,1.45,1.83,2.32,2.49.22.17.31.37.31.53,0,.28-.22.51-.52.51-.13,0-.28-.04-.42-.17-.86-.7-1.62-1.56-2.28-2.5-.86,1.12-1.85,2.07-2.91,2.76-.1.07-.21.1-.31.1-.25,0-.46-.2-.46-.44,0-.15.08-.32.31-.48,1.03-.67,2.01-1.63,2.84-2.77-.38-.62-.7-1.26-.98-1.93-.3-.7-.58-1.43-.74-2.19-.07-.3-.2-.83-.21-.9h-.53c-.28,0-.43-.23-.43-.45s.15-.45.43-.45h3.92ZM205.5,314.02c.15.73.35,1.45.62,2.14.27.69.59,1.35.96,2,.63-1.07,1.11-2.28,1.33-3.54.07-.39-.06-.59-.55-.59h-2.36Z" fill="#fff"/>
    <path d="M216.89,313.26h.46c.46,0,.9-.03,1.32-.07.39-.04.6.24.6.52,0,.21-.14.44-.43.46-.42.06-.84.07-1.31.07-.28,0-.55,0-.82-.01-.13.77-.24,1.56-.35,2.33.18.01.37.01.56.01.76,0,1.59-.07,2.21-.18.39-.07.63.21.63.49,0,.21-.14.44-.45.51-.62.14-1.57.23-2.4.23-.22,0-.45,0-.66-.01-.07.66-.1,1.15-.1,1.52,0,1.6.94,2.21,2.19,2.21,1.59,0,2.6-.82,2.6-2.45,0-.31-.07-.66-.14-.87-.03-.07-.03-.13-.03-.2,0-.28.24-.46.49-.46.21,0,.42.11.53.38.11.3.21.76.21,1.15,0,2.4-1.62,3.53-3.67,3.53s-3.25-1.08-3.25-3.22c0-.44.03-.97.1-1.64-.7-.07-1.31-.17-1.77-.3-.32-.08-.46-.32-.46-.55,0-.25.18-.51.53-.51.07,0,.14.01.21.03.41.1.97.2,1.62.27.1-.77.21-1.55.35-2.32-.65-.06-1.19-.14-1.62-.24-.3-.07-.44-.28-.44-.49,0-.28.27-.58.72-.48.38.08.88.17,1.5.23l.38-2.29c.04-.27.27-.39.51-.39.29,0,.59.2.53.55l-.38,2.21Z" fill="#fff"/>
    <path d="M227.24,312.11c.3,0,.59.2.56.6-.03.41-.06.73-.06,1.24,0,4.67,1.07,6.27,1.72,6.27.37,0,.74-.38,1.05-1.39.08-.31.31-.44.52-.44.27,0,.53.21.53.55,0,.07-.01.15-.04.24-.52,1.6-1.31,2.23-2.02,2.23-1.57,0-2.88-2.3-2.88-7.42,0-.63.03-1.04.06-1.39.04-.34.31-.49.56-.49ZM237.31,317.7c.03.08.03.17.03.24,0,.39-.27.6-.55.6-.23,0-.45-.14-.55-.44-.37-1.31-1.36-2.89-2.35-3.75-.14-.13-.2-.27-.2-.39,0-.25.24-.48.53-.48.13,0,.27.06.41.15,1.11.87,2.32,2.67,2.67,4.06Z" fill="#fff"/>
    <path d="M240.73,314.57c-.34.01-.52-.24-.52-.51,0-.25.17-.51.53-.53.58-.04,1.31-.11,2.12-.24.14-.8.2-1.39.3-2.28.03-.35.3-.52.56-.52.28,0,.55.2.49.58-.1.82-.17,1.39-.27,2.04.46-.1.94-.21,1.42-.34.07-.01.13-.03.18-.03.31,0,.46.24.46.48,0,.21-.13.44-.41.52-.63.17-1.25.32-1.84.44-.51,2.81-1.21,5.31-2.04,7.48-.13.34-.38.48-.62.48-.27,0-.52-.18-.52-.52,0-.08.03-.2.07-.31.86-2.05,1.52-4.37,2.01-6.93-.72.1-1.38.17-1.94.2ZM245.88,318.87c.21,0,.41.13.45.41.14.98.73,1.39,2.56,1.39.56,0,1.19-.07,1.8-.18.38-.07.59.22.59.52,0,.24-.14.49-.44.55-.62.13-1.29.18-1.97.18-2.38,0-3.36-.76-3.54-2.25-.04-.38.27-.62.55-.62ZM250.19,314.71c.35,0,.53.27.53.52,0,.27-.18.53-.52.52-1.12-.03-2.43.14-3.4.37-.06.01-.11.03-.17.03-.31,0-.48-.24-.48-.48,0-.25.17-.52.49-.59,1.03-.24,2.39-.39,3.54-.37Z" fill="#fff"/>
    <path d="M256.93,311.42c.03-.34.3-.49.56-.49.3,0,.59.2.56.56-.15,1.98-.28,4.62-.28,6.84,0,2.02.62,2.67,1.81,2.67s2.66-.55,4-2.21c.15-.18.32-.25.49-.25.28,0,.53.21.53.51,0,.15-.06.31-.2.48-1.5,1.85-3.23,2.57-4.79,2.57-2,0-2.98-1.01-2.98-3.78,0-2.22.11-4.86.28-6.9Z" fill="#fff"/>
    <path d="M274.36,311.58v.87c1.19-.01,2.38,0,3.42.03.37.01.55.27.55.51,0,.25-.18.48-.55.48-1.01-.03-2.19-.03-3.4-.01.01.67.04,1.34.07,2.01,1-.06,1.97-.15,2.84-.27.41-.06.63.22.63.49,0,.22-.15.45-.46.49-.93.13-1.92.21-2.95.27.04.77.1,1.53.17,2.29,1.32.31,2.54.86,3.58,1.57.24.17.34.38.34.58,0,.3-.21.53-.51.53-.13,0-.27-.04-.41-.14-.9-.65-1.9-1.17-2.94-1.49.01.11.01.22.01.35,0,1.34-1.19,2.07-2.63,2.07-1.78,0-2.64-.74-2.64-1.85,0-1.01,1.05-1.9,2.78-1.9.46,0,.93.03,1.39.1-.07-.69-.11-1.38-.15-2.07-.37.01-.72.01-1.08.01-.79,0-1.56-.04-2.04-.11-.35-.06-.52-.28-.52-.51,0-.27.23-.52.62-.48.48.06,1.21.11,1.9.11.35,0,.7,0,1.07-.01-.04-.67-.06-1.35-.07-2.02-1.25.03-2.47.07-3.51.11-.37.01-.56-.24-.56-.49,0-.24.17-.49.53-.51,1.04-.06,2.26-.1,3.51-.13v-1.63c0-.32.25-.48.51-.48s.51.15.51.48v.74ZM273.73,319.92c0-.14,0-.25-.01-.39-.46-.08-.96-.13-1.45-.13-1.14,0-1.69.41-1.69.94,0,.48.34.84,1.55.84.93,0,1.6-.41,1.6-1.26Z" fill="#fff"/>
    <path d="M288.57,319.09c-.32.39-.73.53-1.15.53-1.22,0-2.12-.93-2.12-2.39,0-1.19.84-2.09,1.88-2.09.37,0,.72.07,1.03.21-.03-.55-.03-1.08-.04-1.62-2.01.07-4.02.18-5.59.31-.39.03-.6-.24-.6-.52,0-.24.17-.49.53-.52,1.57-.11,3.61-.21,5.65-.3-.01-.55-.01-1.19-.01-1.94,0-.34.27-.52.53-.52.25,0,.51.17.51.51v1.93c1.57-.06,3.09-.08,4.34-.08.37,0,.55.24.55.48,0,.27-.2.52-.56.52-1.24,0-2.74.04-4.31.1.03.87.03,1.74.1,2.61.28.46.44,1.04.44,1.72,0,2.11-1.04,3.81-2.76,4.6-.11.06-.21.07-.31.07-.32,0-.53-.25-.53-.52,0-.21.11-.42.41-.55,1-.44,1.83-1.34,2.08-2.52h-.04ZM286.3,317.27c0,.93.6,1.43,1.24,1.43s1.03-.46,1.03-1.18c0-.84-.51-1.43-1.28-1.43-.56,0-.98.51-.98,1.18Z" fill="#fff"/>
    <path d="M296.32,317.63c0-2.97,2.49-5.64,6.24-5.64,3.22,0,5.16,2.01,5.16,4.67,0,2.46-1.53,4.3-3.75,4.99-.08.03-.17.04-.24.04-.37,0-.58-.28-.58-.58,0-.25.14-.49.49-.61,1.92-.6,2.94-1.87,2.94-3.85s-1.38-3.67-3.93-3.71c-.15,2.59-.82,4.74-1.72,6.15-.77,1.22-1.48,1.56-2.28,1.56-1.19,0-2.33-1.05-2.33-3.04ZM299.91,313.59c-.6.34-1.12.79-1.53,1.34-.27.35-.48.73-.65,1.14-.2.52-.27,1.03-.3,1.57,0,1.17.58,1.91,1.22,1.91.45,0,.86-.18,1.32-.93.8-1.29,1.39-3.2,1.55-5.58-.58.1-1.11.27-1.62.55Z" fill="#fff"/>
    <path d="M317.76,313.12c-1.83.24-4.26.56-6.68.91-.46.07-.72-.23-.72-.53,0-.25.18-.51.58-.55,2.89-.38,6.44-.77,9.33-1.04.45-.04.69.24.69.52,0,.24-.17.48-.51.55-.48.07-1.07.25-1.59.55-2.32,1.32-2.87,3.09-2.87,4.3,0,1.63,1.26,2.78,3.23,2.96.41.04.6.3.6.56,0,.31-.25.6-.69.58-2.5-.17-4.24-1.84-4.24-3.99,0-1.5.7-3.32,2.85-4.79v-.03ZM319.07,315.57c0-.21.2-.39.42-.39.08,0,.18.03.28.1.44.32.96.86,1.31,1.31.08.11.13.24.13.34,0,.24-.2.44-.42.44-.11,0-.24-.06-.34-.18-.38-.48-.84-.96-1.22-1.28-.11-.1-.15-.21-.15-.32ZM320.28,314.49c0-.23.2-.42.42-.42.1,0,.2.04.29.11.38.28.94.83,1.28,1.25.08.11.13.22.13.34,0,.24-.2.44-.41.44-.1,0-.21-.06-.31-.17-.34-.41-.87-.94-1.25-1.25-.11-.08-.15-.2-.15-.3Z" fill="#fff"/>
    <path d="M323.89,319.8c0-.34.41-.65.86-.38.83.51,1.95,1.5,2.61,2.32.14.18.2.35.2.51,0,.32-.28.56-.59.56-.18,0-.39-.08-.55-.3-.6-.81-1.62-1.81-2.32-2.32-.15-.11-.21-.25-.21-.39Z" fill="#fff"/>
    <path d="M37.25,340.12c-.82-.81-1.63-1.97-2.23-3.11-1.43.27-2.95.46-4.3.53-.34.03-.53-.25-.53-.52,0-.24.14-.48.48-.49,1.24-.08,2.6-.24,3.92-.46-.34-.79-.62-1.6-.83-2.39-.08-.38.22-.62.53-.62.24,0,.46.13.55.44.2.77.45,1.6.77,2.38,1.15-.23,2.21-.49,3.06-.77.08-.03.17-.04.24-.04.31,0,.48.24.48.48,0,.21-.11.44-.39.52-.84.27-1.85.53-2.95.76.59,1.05,1.38,2.19,2.5,3.4.15.16.22.34.22.51,0,.32-.27.59-.63.59-.08,0-.17-.01-.25-.04-1.07-.37-2.09-.53-3.22-.53-1.8,0-2.59.6-2.59,1.49s.94,1.57,3.01,1.57c.58,0,1.1-.03,1.53-.07.38-.04.58.24.58.52,0,.25-.15.49-.49.53-.46.06-.97.08-1.59.08-2.7,0-4.13-1.12-4.13-2.6,0-1.32.97-2.49,3.67-2.49.91,0,1.71.1,2.59.37v-.03Z" fill="#fff"/>
    <path d="M45.83,340.15c1.26-1.17,2.85-1.8,4.38-1.8,1.93,0,3.29,1.08,3.29,2.61,0,2.05-1.76,3.44-4.93,3.87-.44.04-.67-.24-.67-.52,0-.24.18-.48.55-.53,2.7-.37,3.96-1.35,3.96-2.8,0-1-.83-1.63-2.19-1.63-1.57,0-3.11.63-4.48,2.19-.14.15-.32.22-.51.22-.34,0-.66-.27-.6-.72.22-1.46.53-3.19.87-4.72.06-.3.3-.44.53-.44.3,0,.58.22.49.62-.28,1.24-.53,2.52-.72,3.63h.03ZM50.4,334.18c.27.13.38.35.38.55,0,.28-.2.52-.51.52-.1,0-.21-.03-.34-.08-.7-.35-1.6-.67-2.28-.88-.31-.1-.45-.31-.45-.52,0-.25.21-.49.56-.49.07,0,.14.01.21.03.69.17,1.63.49,2.42.89Z" fill="#fff"/>
    <path d="M59.33,333.98c.3,0,.59.22.51.62-.48,2.39-.65,4.13-.65,6.11,0,1.01.11,2.33.25,3.27.06.41-.24.65-.55.65-.24,0-.48-.15-.53-.48-.13-.9-.24-2.28-.24-3.44,0-2.08.17-3.81.66-6.3.07-.3.32-.43.55-.43ZM65.65,342.53c.63,0,1.41-.07,2.11-.21.42-.08.66.23.66.53,0,.23-.14.46-.45.52-.8.16-1.56.23-2.33.23-2.43,0-3.46-.76-3.63-2.3-.04-.39.25-.62.53-.62.24,0,.46.14.51.45.17,1.07.9,1.41,2.6,1.41ZM67.64,335.74c0,.24-.15.48-.52.52-1.24.17-2.59.3-3.91.32-.44.01-.65-.27-.65-.53s.2-.53.59-.53c1.31-.03,2.61-.14,3.84-.31.42-.06.65.24.65.53Z" fill="#fff"/>
    <path d="M75.72,339.17c.89-.3,1.78-.43,2.77-.43,2.01,0,3.41.97,3.41,2.56,0,1.76-1.18,2.77-3.05,2.98-.41.04-.63-.22-.63-.51,0-.22.17-.46.52-.52,1.46-.18,2.07-.86,2.07-1.94,0-.9-.74-1.63-2.31-1.63-1.01,0-1.93.18-2.78.49v2.52c0,1.24-.55,1.78-1.59,1.78-1.21,0-2.33-.9-2.33-1.85,0-.84.55-1.94,2.91-3.11v-2.85c-.74.08-1.48.14-2.09.15-.35,0-.53-.25-.53-.51s.17-.51.53-.51c.62-.01,1.35-.07,2.09-.17v-2.25c0-.34.25-.51.51-.51s.51.17.51.51v2.11c.63-.1,1.24-.21,1.73-.34.07-.01.13-.03.18-.03.32,0,.51.24.51.48,0,.21-.14.44-.45.53-.58.15-1.25.28-1.97.39v2.64ZM74.71,340.57c-1.56.9-1.83,1.53-1.83,2.01s.6.81,1.22.81c.46-.01.59-.31.6-.72v-2.11ZM82.66,336.23c.17.15.24.32.24.49,0,.31-.25.56-.55.56-.14,0-.3-.06-.44-.2-.58-.58-1.35-1.14-1.85-1.42-.21-.11-.31-.3-.31-.46,0-.27.22-.51.53-.51.1,0,.2.01.31.07.58.27,1.49.91,2.07,1.46Z" fill="#fff"/>
    <path d="M86.52,339.41c-.38.44-.76.81-1.11,1.11-.13.11-.25.15-.38.15-.22,0-.39-.17-.39-.39,0-.14.07-.3.24-.45.96-.86,2.02-2.36,2.68-3.64.11-.24.3-.34.46-.34.25,0,.49.2.49.49,0,.08-.03.18-.07.28-.34.66-.8,1.38-1.29,2.02.2.04.35.2.35.44v6.07c0,.3-.24.44-.49.44-.24,0-.49-.14-.49-.44v-5.75ZM87.67,332.75c.25,0,.49.21.49.51,0,.1-.03.2-.08.31-.59,1-1.7,2.28-2.57,2.94-.13.1-.27.14-.38.14-.25,0-.44-.2-.44-.42,0-.15.07-.31.25-.45.76-.6,1.67-1.71,2.26-2.73.11-.2.3-.3.46-.3ZM89.38,339.56c-.27,0-.39-.22-.39-.43,0-.23.13-.44.39-.44h7.19c.28,0,.41.21.41.44,0,.21-.13.43-.41.43h-1.25v1.25h1.74c.28,0,.41.21.41.44,0,.21-.13.44-.41.44h-1.74v2.45c0,.93-.45,1.31-1.43,1.31-.28,0-.56-.03-.89-.11-.29-.08-.44-.3-.44-.51,0-.25.22-.51.58-.43.3.06.53.08.76.08.3,0,.41-.1.41-.46v-2.32h-5.59c-.27,0-.39-.23-.39-.44,0-.23.13-.44.39-.44h5.59v-1.25h-4.93ZM91.37,337.65c-.87-.01-1.45-.28-1.48-1.25v-2.02c0-.83.46-1.25,1.48-1.25h3.34c1.01,0,1.48.42,1.48,1.25v2.02c0,.83-.46,1.25-1.48,1.25h-3.34ZM92.28,343.09c.11.14.15.27.15.39,0,.28-.22.49-.48.49-.17,0-.34-.08-.48-.28-.21-.3-.51-.6-.79-.86-.13-.13-.18-.25-.18-.38,0-.24.2-.44.45-.44.11,0,.24.03.37.13.32.24.67.59.96.94ZM95.23,334.49c0-.41-.17-.55-.7-.55h-2.98c-.53,0-.7.14-.7.55v.46h4.38v-.46ZM94.53,336.84c.42-.01.7-.07.7-.55v-.52h-4.38v.52c0,.41.17.55.7.55h2.98Z" fill="#fff"/>
    <path d="M101.5,333.98c.3,0,.59.22.51.62-.48,2.39-.65,4.13-.65,6.11,0,1.01.11,2.33.25,3.27.06.41-.24.65-.55.65-.24,0-.48-.15-.53-.48-.13-.9-.24-2.28-.24-3.44,0-2.08.17-3.81.66-6.3.07-.3.32-.43.55-.43ZM107.83,342.53c.63,0,1.41-.07,2.11-.21.42-.08.66.23.66.53,0,.23-.14.46-.45.52-.8.16-1.56.23-2.33.23-2.43,0-3.46-.76-3.63-2.3-.04-.39.25-.62.53-.62.24,0,.46.14.51.45.17,1.07.9,1.41,2.6,1.41ZM109.82,335.74c0,.24-.15.48-.52.52-1.24.17-2.59.3-3.91.32-.44.01-.65-.27-.65-.53s.2-.53.59-.53c1.31-.03,2.61-.14,3.84-.31.42-.06.65.24.65.53Z" fill="#fff"/>
    <path d="M115.55,344.89c-1.26-.03-1.9-.38-1.93-1.74v-7.97c0-1.24.55-1.74,1.93-1.74h7.45c1.38,0,1.93.51,1.93,1.74v7.97c0,1.24-.55,1.74-1.93,1.74h-7.45ZM122.8,343.99c.79-.01,1.07-.17,1.08-1.01v-7.63c0-.81-.28-1.01-1.08-1.01h-7.05c-.8,0-1.08.2-1.08,1.01v7.63c0,.81.28,1.01,1.08,1.01h7.05ZM118.05,341.64c-.89-.01-1.41-.27-1.42-1.24v-2.64c0-.81.37-1.24,1.42-1.24h2.4c1.05,0,1.42.42,1.42,1.24v2.64c0,.81-.37,1.24-1.42,1.24h-2.4ZM120.26,340.8c.42-.01.63-.07.63-.53v-2.36c0-.39-.11-.53-.63-.53h-2.01c-.52,0-.63.14-.63.53v2.36c0,.39.11.53.63.53h2.01Z" fill="#fff"/>
    <path d="M130.69,333.13c0-.31.25-.45.51-.45s.51.14.51.45v11.96c0,.3-.25.45-.51.45s-.51-.15-.51-.45v-3.51c-.98.48-2.21.96-3.3,1.24-.35.08-.58-.2-.58-.49,0-.21.11-.41.37-.48.25-.07.49-.14.74-.21v-6.96c0-.31.25-.45.51-.45s.51.14.51.45v6.63c.59-.21,1.18-.44,1.76-.69v-7.49ZM132.81,334.78c-.28,0-.44-.23-.44-.46,0-.22.15-.45.44-.45h4.55c1.07,0,1.6.39,1.6,1.25,0,.11-.01.24-.03.38-.32,2.07-1.05,4-2.09,5.68.76,1.14,1.64,2.14,2.66,2.94.18.15.27.32.27.49,0,.28-.24.52-.53.52-.14,0-.29-.06-.45-.18-.96-.83-1.81-1.78-2.54-2.87-.9,1.25-1.98,2.32-3.16,3.12-.13.08-.24.13-.35.13-.28,0-.48-.23-.48-.46,0-.17.08-.35.3-.49,1.21-.81,2.26-1.92,3.12-3.22-.79-1.36-1.36-2.85-1.76-4.38-.18-.67-.27-1.29-.38-1.98h-.72ZM134.44,334.78c.14.9.32,1.77.6,2.64.32.96.7,1.9,1.21,2.78.8-1.46,1.38-3.09,1.66-4.78.07-.45-.07-.65-.59-.65h-2.88Z" fill="#fff"/>
    <path d="M142.46,337.9c-.28.55-.58,1.05-.86,1.48-.13.18-.29.25-.44.25-.22,0-.42-.17-.42-.41,0-.1.03-.2.1-.31.94-1.45,1.81-3.65,2.29-5.72.07-.28.28-.41.49-.41.29,0,.59.24.51.65-.27,1.1-.69,2.3-1.17,3.4.24,0,.49.15.49.45v7.86c0,.3-.25.44-.49.44-.25,0-.51-.14-.51-.44v-7.24ZM149.46,335.89c.18,1.05.46,2.09.84,3.09.52-.42,1.07-.94,1.66-1.6.11-.13.27-.18.39-.18.28,0,.55.24.55.51,0,.13-.06.27-.18.39-.74.7-1.48,1.26-2.09,1.66.74,1.63,1.74,2.99,2.94,4.09.17.15.24.32.24.48,0,.28-.24.52-.53.52-.14,0-.29-.06-.44-.2-.51-.51-.98-1.03-1.41-1.6-.74-1.03-1.36-2.15-1.83-3.33-.42-1.08-.73-2.19-.91-3.34-.51,1.03-1.17,2-1.91,2.85h.03c.25,0,.51.16.51.46v3.89c.83-.23,1.63-.48,2.29-.73.07-.03.14-.04.21-.04.28,0,.46.23.46.46,0,.18-.11.35-.35.45-1.39.53-3.33,1.05-4.74,1.32-.41.08-.63-.18-.63-.45,0-.21.15-.44.46-.49.39-.07.83-.17,1.28-.27v-4.08c-.49.53-1.01,1.01-1.53,1.39-.13.1-.25.14-.37.14-.25,0-.42-.2-.42-.41,0-.14.07-.28.22-.41,1.5-1.18,2.92-2.97,3.7-4.58h-3.01c-.25,0-.38-.23-.38-.44,0-.22.13-.44.38-.44h3.33v-1.8c0-.28.25-.42.51-.42s.51.14.51.42v1.8h3.99c.28,0,.41.21.41.44,0,.21-.13.44-.41.44h-3.77Z" fill="#fff"/>
    <path d="M158.61,340.18v.88c.76.38,1.59.93,2.05,1.34.15.14.21.3.21.44,0,.25-.2.46-.44.46-.14,0-.3-.06-.44-.21-.35-.35-.89-.76-1.39-1.1v3.11c0,.28-.22.42-.46.42-.22,0-.46-.14-.46-.42v-1.94l.06-1.77c-.53.9-1.29,1.88-2.11,2.67-.11.11-.24.17-.37.17-.24,0-.44-.2-.44-.44,0-.11.04-.24.17-.35.94-.89,1.76-2.01,2.43-3.26h-.66c-.94,0-1.28-.41-1.28-1.14v-1.19c0-.73.34-1.14,1.28-1.14h.91v-1.22h-2.25c-.27,0-.41-.23-.41-.44,0-.23.14-.44.41-.44h2.25v-1.56c0-.28.24-.42.46-.42.24,0,.46.14.46.42v1.56h2.14c.28,0,.41.21.41.44,0,.21-.13.44-.41.44h-2.14v1.22h1c.94,0,1.28.41,1.28,1.14v1.19c0,.73-.34,1.14-1.28,1.14h-1ZM157.69,339.38v-1.86h-.72c-.46,0-.56.14-.56.46v.91c0,.32.1.48.56.48h.72ZM159.41,339.38c.37,0,.56-.08.58-.48v-.91c0-.32-.11-.46-.58-.46h-.8v1.86h.8ZM163.31,343.08c.25,0,.45.17.45.41,0,.13-.06.27-.21.41-.55.52-1.38,1.1-2.12,1.48-.11.06-.22.08-.34.08-.28,0-.48-.21-.48-.44,0-.17.1-.35.35-.48.65-.32,1.45-.84,1.94-1.29.13-.11.28-.17.41-.17ZM163.32,342.74c-.89-.01-1.38-.32-1.39-1.25v-4.86c0-.84.39-1.21,1.35-1.21h.34c.15-.38.27-.79.38-1.18h-2.43c-.25,0-.38-.21-.38-.42s.13-.42.38-.42h5.93c.27,0,.39.21.39.42s-.13.42-.39.42h-2.57c-.1.39-.22.79-.35,1.18h1.14c.96,0,1.33.41,1.33,1.25v4.82c0,.84-.42,1.25-1.38,1.25h-2.35ZM166.09,336.79c0-.44-.13-.56-.58-.56h-2.04c-.45,0-.59.13-.59.56v.74h3.2v-.74ZM162.88,339.68h3.2v-1.34h-3.2v1.34ZM165.48,341.92c.42-.01.59-.11.6-.56v-.88h-3.2v.88c0,.44.17.56.62.56h1.98ZM167.48,344.44c.22.14.31.32.31.48,0,.25-.21.48-.48.48-.11,0-.22-.03-.34-.11-.59-.38-1.29-.97-1.76-1.48-.11-.11-.15-.24-.15-.35,0-.24.21-.42.45-.42.14,0,.28.06.42.2.41.41,1,.87,1.55,1.21Z" fill="#fff"/>
    <path d="M169.55,334.49c-.27,0-.41-.24-.41-.48s.14-.48.41-.48h11.96c.28,0,.42.24.42.48s-.14.48-.42.48h-1.98v9.33c0,1.05-.62,1.55-1.71,1.55-.42,0-.83-.04-1.28-.14-.28-.06-.41-.28-.41-.52,0-.3.22-.59.59-.51.31.07.72.11,1.03.11.48,0,.72-.22.72-.72v-9.11h-8.91ZM172.53,341.46c-.91-.01-1.39-.39-1.42-1.34v-2.36c0-.84.42-1.33,1.42-1.33h2.09c1,0,1.42.49,1.42,1.33v2.36c0,.84-.42,1.34-1.42,1.34h-2.09ZM174.34,340.59c.53-.01.67-.14.69-.66v-1.97c0-.49-.13-.66-.69-.66h-1.53c-.56,0-.69.17-.69.66v1.97c0,.49.13.66.69.66h1.53Z" fill="#fff"/>
    <path d="M187.49,334.69c-.11-.11-.15-.24-.15-.34,0-.23.18-.41.44-.41.13,0,.27.04.41.17.55.48,1.14,1.19,1.43,1.76.06.1.08.21.08.3,0,.3-.24.52-.49.52-.15,0-.31-.08-.42-.28-.08-.15-.18-.31-.3-.46-1.59.24-3.26.39-4.71.48-.31.01-.48-.22-.48-.46s.15-.46.46-.48c.22-.01.46-.03.7-.04.44-.76.79-1.5,1.15-2.43.1-.25.31-.37.51-.37.25,0,.49.17.49.45,0,.07-.01.14-.04.22-.34.77-.67,1.43-1.03,2.05.79-.06,1.57-.11,2.36-.21-.14-.17-.3-.34-.42-.46ZM185.28,342.15v2.88c0,.28-.24.43-.49.43-.24,0-.49-.15-.49-.43v-6.61c0-.81.38-1.18,1.39-1.18h1.85c1.01,0,1.39.37,1.39,1.18v5.58c0,.89-.49,1.25-1.24,1.25-.34,0-.59-.03-.9-.1-.28-.06-.39-.27-.39-.46,0-.27.22-.53.59-.45.18.04.41.08.6.08.24,0,.35-.11.35-.42v-1.76h-2.67ZM187.95,338.56c0-.37-.13-.48-.53-.48h-1.6c-.41,0-.53.11-.53.48v.65h2.67v-.65ZM185.28,340.05v1.25h2.67v-1.25h-2.67ZM191.63,336.68c0,.55.2.65,1.31.65,1.48,0,1.74-.21,1.87-1.04.04-.27.27-.41.48-.41.28,0,.55.2.49.59-.2,1.35-.76,1.76-2.84,1.76-1.91,0-2.29-.31-2.29-1.28v-3.68c0-.32.25-.48.51-.48.24,0,.48.15.48.46v1.74c.94-.32,1.81-.72,2.74-1.32.1-.07.2-.08.3-.08.28,0,.53.24.53.51,0,.17-.08.32-.3.45-1.05.63-2.19,1.1-3.27,1.42v.72ZM191.63,343.45c0,.55.2.65,1.45.65,1.55,0,1.87-.25,2-1.12.04-.27.25-.41.48-.41.27,0,.53.2.49.59-.2,1.43-.82,1.87-2.97,1.87s-2.43-.34-2.43-1.31v-4.14c0-.32.25-.48.51-.48.24,0,.48.15.48.46v1.72c1.03-.35,2.01-.79,2.83-1.34.1-.07.2-.1.3-.1.3,0,.53.25.53.52,0,.15-.08.32-.3.45-.94.59-2.18,1.1-3.36,1.46v1.18Z" fill="#fff"/>
    <path d="M201.37,333.45c.06-.3.28-.42.51-.42.31,0,.61.24.52.65-.14.62-.3,1.25-.49,1.9.52-.07,1.04-.15,1.52-.25.42-.08.66.17.66.44,0,.23-.15.46-.51.53-.65.13-1.32.24-2.01.34-.58,1.69-1.33,3.39-2.22,4.82-.14.24-.35.34-.55.34-.27,0-.51-.2-.51-.49,0-.11.04-.25.13-.39.8-1.25,1.49-2.66,2.02-4.15-.6.06-1.21.1-1.76.13-.38.01-.58-.25-.58-.52,0-.25.17-.49.52-.51.65-.03,1.39-.07,2.16-.15.22-.74.42-1.49.58-2.25ZM204.47,339.55c0-.6.04-.93.13-1.32.06-.28.28-.41.49-.41.27,0,.55.21.49.53-.07.41-.11.65-.11,1.18,0,.38.04,1.03.25,2.11.83.25,1.7.65,2.52,1.18.22.14.31.34.31.51,0,.28-.21.52-.49.52-.1,0-.21-.03-.32-.11-.6-.42-1.25-.76-1.87-1.03v.14c0,1.46-1.01,2.05-2.19,2.05-1.66,0-2.47-.74-2.47-1.83,0-.93.81-1.74,2.61-1.74.27,0,.56.03.86.07-.14-.81-.2-1.43-.2-1.85ZM204.84,342.77c0-.14-.01-.27-.03-.39-.35-.08-.67-.13-.98-.13-1.18,0-1.59.37-1.59.83,0,.51.35.88,1.43.88.63,0,1.17-.3,1.17-1.19ZM208.79,336.55c.24.15.35.37.35.56,0,.27-.21.51-.49.51-.11,0-.24-.03-.37-.11-.65-.39-1.42-.77-2.05-.98-.25-.08-.35-.27-.35-.46,0-.25.2-.51.52-.51.07,0,.14.01.21.03.65.18,1.55.58,2.18.97Z" fill="#fff"/>
    <path d="M220.74,334.57c1.14,0,1.7.49,1.7,1.49,0,.11-.01.23-.03.35-.44,3.7-2.56,6.62-5.85,8.04-.11.06-.22.07-.31.07-.34,0-.55-.25-.55-.53,0-.21.13-.45.44-.58,3.02-1.31,4.72-3.74,5.13-7.07.07-.53-.06-.73-.67-.73h-5.61c-.55,0-.74.17-.74.58v2.37c0,.34-.28.51-.56.51s-.56-.17-.56-.51v-2.53c0-.94.53-1.46,1.63-1.46h5.99Z" fill="#fff"/>
    <path d="M230.2,336.46c.15.15.22.34.22.49,0,.32-.27.59-.58.59-.15,0-.31-.07-.46-.23-.66-.69-1.39-1.33-2.02-1.78-.18-.13-.25-.3-.25-.45,0-.28.24-.53.56-.53.13,0,.27.03.41.13.63.41,1.46,1.08,2.12,1.78ZM236.64,336.04c.3,0,.58.22.58.55,0,.11-.03.22-.1.34-1.97,3.47-4.99,5.94-8.61,7.31-.1.03-.18.04-.27.04-.35,0-.58-.27-.58-.55,0-.21.14-.45.45-.56,3.44-1.29,6.21-3.58,8.01-6.8.13-.22.32-.32.52-.32Z" fill="#fff"/>
    <path d="M247.49,334.53c.98-.01,1.53.37,1.53,1.08,0,.21-.04.46-.15.74-.45,1.18-1.11,2.32-1.91,3.36,1.35.9,2.85,2.23,3.95,3.51.14.17.2.34.2.49,0,.35-.28.62-.6.62-.18,0-.38-.08-.55-.3-1.03-1.26-2.35-2.56-3.64-3.53-1.38,1.56-3.05,2.84-4.75,3.7-.11.06-.23.08-.32.08-.32,0-.53-.27-.53-.55,0-.21.11-.42.38-.55,2.96-1.48,5.51-4.05,6.66-7.05.06-.13.08-.24.08-.31,0-.2-.17-.25-.49-.24l-5.18.08c-.35,0-.53-.25-.53-.52s.18-.55.52-.55l5.35-.08Z" fill="#fff"/>
    <path d="M259.57,337.58c.08-.17.25-.28.46-.28.08,0,.17.01.27.06,1.01.45,2.35,1.21,3.46,2.05.2.15.28.34.28.51,0,.31-.25.58-.56.58-.13,0-.25-.04-.39-.14-1.11-.84-2.29-1.59-3.22-2.02-.14-.07-.24-.17-.3-.27v6.38c0,.35-.28.52-.56.52s-.56-.17-.56-.52v-10.74c0-.35.28-.53.56-.53s.56.18.56.53v3.88Z" fill="#fff"/>
    <path d="M271.63,338.87c.04.1.06.18.06.27,0,.31-.27.52-.53.52-.2,0-.41-.11-.51-.37-.25-.6-.65-1.39-.98-1.94-.06-.1-.08-.2-.08-.28,0-.25.25-.43.52-.43.17,0,.35.08.46.25.34.49.76,1.31,1.07,1.98ZM277.8,336.44c.32,0,.65.25.55.69-.9,3.33-3.15,6.34-5.94,7.86-.11.06-.21.08-.31.08-.28,0-.49-.24-.49-.51,0-.18.08-.37.32-.49,2.56-1.42,4.57-4.12,5.35-7.21.07-.3.3-.42.52-.42ZM274.42,338.19c.03.07.04.14.04.21,0,.31-.28.52-.56.52-.18,0-.38-.1-.46-.35-.24-.66-.63-1.45-.93-1.94-.06-.1-.08-.18-.08-.25,0-.25.24-.42.51-.42.17,0,.35.07.48.25.35.51.76,1.31,1.01,1.98Z" fill="#fff"/>
    <path d="M290.8,334.94c1.05-.01,1.57.43,1.57,1.24,0,.18-.03.39-.08.61-.77,3.37-3.23,6.38-6.53,7.83-.11.04-.21.07-.31.07-.31,0-.53-.25-.53-.52,0-.21.13-.42.44-.56,3.08-1.35,5.03-3.91,5.83-7.03.03-.1.04-.18.04-.25,0-.22-.15-.28-.53-.28l-7.34.07c-.35,0-.53-.28-.53-.55,0-.28.18-.55.52-.55l7.46-.07ZM291.88,333.65c0-.86.67-1.53,1.54-1.53s1.53.68,1.53,1.53-.67,1.55-1.53,1.55-1.54-.68-1.54-1.55ZM292.51,333.65c0,.53.38.91.91.91s.91-.38.91-.91-.38-.91-.91-.91-.91.38-.91.91Z" fill="#fff"/>
    <path d="M301.58,335.46c.28,0,.41.23.41.45s-.13.45-.41.45h-.74c-.07.7-.15,1.38-.31,2.07-.17.72-.39,1.42-.67,2.09.56.74,1.1,1.53,1.53,2.23.08.13.11.25.11.37,0,.3-.24.52-.49.52-.18,0-.38-.11-.52-.35-.32-.56-.72-1.15-1.12-1.73-.76,1.42-1.74,2.59-2.83,3.43-.14.11-.27.15-.39.15-.25,0-.45-.21-.45-.46,0-.14.07-.31.24-.45,1.11-.89,2.08-2.08,2.77-3.56-.63-.81-1.29-1.56-1.85-2.09-.13-.13-.18-.25-.18-.38,0-.24.22-.45.49-.45.13,0,.28.06.41.17.56.53,1.08,1.11,1.57,1.7.38-1.05.59-2.15.68-3.26h-3.5c-.27,0-.41-.22-.41-.45s.14-.45.41-.45h2.08v-2.15c0-.31.25-.45.51-.45s.51.14.51.45v2.15h2.18ZM302.34,337.57c-.27,0-.41-.22-.41-.45s.14-.45.41-.45h3.36v-3.46c0-.28.25-.42.51-.42s.51.14.51.42v3.46h1.45c.28,0,.41.23.41.45s-.13.45-.41.45h-1.45v6.32c0,1.07-.53,1.42-1.56,1.42-.28,0-.63-.04-.98-.13-.3-.07-.44-.3-.44-.51,0-.28.23-.56.6-.48.34.08.56.11.8.11.35,0,.56-.14.56-.53v-6.21h-3.36ZM304.39,340.6c.08.13.11.25.11.37,0,.31-.25.53-.52.53-.14,0-.29-.08-.39-.25-.27-.46-.69-1-1.04-1.36-.11-.13-.17-.24-.17-.35,0-.25.23-.44.49-.44.13,0,.27.04.39.15.41.37.87.91,1.12,1.35Z" fill="#fff"/>
    <path d="M321.75,334.43c.28,0,.42.22.42.45s-.14.45-.42.45h-8.97c-.69,0-.84.21-.84.79v1.52c0,2.75-.53,5.03-1.41,6.73-.13.25-.34.37-.52.37-.24,0-.46-.2-.46-.48,0-.11.03-.22.1-.35.8-1.59,1.25-3.72,1.25-6.49v-1.48c0-1,.41-1.5,1.64-1.5h3.36v-1.49c0-.27.27-.41.52-.41.27,0,.52.14.52.41v1.49h4.81ZM313.56,339.56c.3,0,.58.25.49.66-.23.96-.61,1.94-1.03,2.68-.17.28-.38.39-.58.39-.24,0-.45-.18-.45-.46,0-.1.03-.21.1-.34.42-.73.74-1.56.97-2.52.07-.3.3-.42.49-.42ZM315.99,343.6c0,.53.25.69,1.48.69,1.56,0,1.98-.31,2.14-1.49.04-.3.25-.42.48-.42.28,0,.56.2.51.58-.27,1.71-.9,2.23-3.11,2.23s-2.53-.35-2.53-1.43v-5c0-.31.27-.46.52-.46.27,0,.52.15.52.46v4.85ZM318.52,337.54c.13.13.17.28.17.41,0,.3-.22.55-.52.55-.14,0-.32-.08-.48-.25-.43-.49-.96-.9-1.46-1.25-.18-.13-.27-.28-.27-.42,0-.25.22-.46.51-.46.1,0,.21.03.32.1.58.34,1.11.76,1.73,1.34ZM322.6,341.8c.04.11.07.22.07.32,0,.34-.27.56-.53.56-.21,0-.43-.13-.53-.44-.28-.77-.69-1.53-1.18-2.21-.07-.1-.1-.21-.1-.3,0-.25.2-.44.46-.44.15,0,.34.07.49.25.51.63,1.01,1.49,1.32,2.23Z" fill="#fff"/>
    <path d="M331.09,343.38c0,.52-.42.94-.93.94s-.94-.42-.94-.94.42-.93.94-.93.93.42.93.93ZM329.38,334.36c0-.41.35-.74.8-.74s.77.34.77.74v.14c-.14,2.22-.24,4.27-.3,6.56-.01.3-.22.45-.49.45-.28,0-.48-.15-.49-.45-.06-2.29-.15-4.34-.3-6.56v-.14Z" fill="#fff"/>
  </g>
</svg>