<?xml version="1.0" encoding="UTF-8"?>
<svg id="_レイヤー_1" data-name="レイヤー_1" xmlns="http://www.w3.org/2000/svg" version="1.1" viewBox="0 0 64 64">
  <!-- Generator: Adobe Illustrator 29.6.1, SVG Export Plug-In . SVG Version: 2.1.1 Build 9)  -->
  <path d="M41.48,30.87c-1.35,1.34-2.01,2.82-2.01,4.5,0,4.67,4.1,6.77,7.01,6.77,1.17,0,7.01-.32,7.01-6.71,0-2.82-2.55-5.72-6.35-7.98-2.75,1.1-4.52,2.29-5.66,3.41Z" fill="#fff"/>
  <path d="M16.49,23.2c4.62-2.35,10.26-3.75,15.51-3.75s10.89,1.4,15.51,3.75c4.33-1.46,9.84-2.5,16.49-3.11v-5.72c0-2.43-1.97-4.4-4.4-4.4H4.4c-2.43,0-4.4,1.97-4.4,4.4v5.72c6.65.61,12.16,1.65,16.49,3.11Z" fill="#fff"/>
  <path d="M10.52,35.43c0,6.39,5.84,6.71,7.01,6.71,2.91,0,7.01-2.1,7.01-6.77,0-1.68-.66-3.16-2.01-4.5-1.13-1.13-2.91-2.32-5.66-3.41-3.8,2.25-6.35,5.15-6.35,7.98Z" fill="#fff"/>
  <path d="M51.86,25.95c3.35,2.63,5.51,5.9,5.51,9.48,0,7.32-5.47,10.6-10.9,10.6s-10.9-3.99-10.9-10.66c0-2.73,1.06-5.18,3.16-7.26,1.03-1.02,2.32-1.96,3.86-2.8-3.28-1.22-6.98-1.97-10.6-1.97s-7.32.75-10.6,1.97c1.54.84,2.83,1.78,3.86,2.8,2.1,2.08,3.16,4.52,3.16,7.26,0,6.67-5.54,10.66-10.9,10.66s-10.9-3.28-10.9-10.6c0-3.59,2.16-6.85,5.51-9.48-3.17-.81-7.15-1.49-12.14-1.96v25.64c0,2.43,1.97,4.4,4.4,4.4h55.2c2.43,0,4.4-1.97,4.4-4.4v-25.64c-4.99.47-8.97,1.15-12.14,1.96Z" fill="#fff"/>
</svg>