<?xml version="1.0" encoding="UTF-8"?>
<svg id="_レイヤー_1" data-name="レイヤー_1" xmlns="http://www.w3.org/2000/svg" version="1.1" viewBox="0 0 428 207.94">
  <!-- Generator: Adobe Illustrator 29.6.1, SVG Export Plug-In . SVG Version: 2.1.1 Build 9)  -->
  <path d="M366.09,151.05c26.84-22.97,34.05-63.17,15.28-95.69-19.28-33.39-59.27-47.11-93.17-33.62C266.75,8.32,237.01,0,204.14,0c-34.67,0-65.86,9.25-87.51,24-9.58-3.14-19.97-4.88-30.85-4.88C38.41,19.12,0,51.76,0,92.01c0,16.79,6.7,32.25,17.93,44.57-.92,2.51-1.54,5.11-1.81,7.8-2.82,27.94,31.8,54.33,77.34,58.93,26.92,2.72,51.62-2.78,67.91-13.5,19.96,13.22,53.14,20.38,89.98,17.5,41.15-3.22,75.84-18.11,91.78-37.1,5.25,5.73,14.72,13.08,31.09,17.71,30.02,8.49,53.78-1.48,53.78-1.48-21.61-1.37-52.95-11.81-61.91-35.4Z" fill="#fff"/>
</svg>