<?xml version="1.0" encoding="UTF-8"?>
<svg id="_レイヤー_1" data-name="レイヤー_1" xmlns="http://www.w3.org/2000/svg" version="1.1" viewBox="0 0 391.87 263.09">
  <!-- Generator: Adobe Illustrator 29.6.1, SVG Export Plug-In . SVG Version: 2.1.1 Build 9)  -->
  <path d="M381.37,55.34c-19.28-33.39-59.27-47.11-93.17-33.62C266.75,8.3,237.01-.02,204.14-.02,169.47-.02,138.28,9.23,116.63,23.98c-9.58-3.14-19.97-4.88-30.85-4.88C38.41,19.1,0,51.73,0,91.99c0,16.79,6.7,32.25,17.93,44.57-.92,2.51-1.54,5.11-1.81,7.8-2.82,27.94,31.8,54.33,77.34,58.93,26.92,2.72,51.62-2.78,67.91-13.5,19.96,13.22,53.14,20.38,89.98,17.5,8.78-.69,17.26-1.91,25.33-3.58,2.35,20.85-6.45,45.14-18.44,59.38,0,0,23.62-10.28,38.24-37.84,6.5-12.25,8.52-22.45,8.76-30,20.9-8.33,36.49-20.07,43.37-33.12,2.2-.99,4.38-2.1,6.51-3.33,35.61-20.56,47.35-66.88,26.23-103.46Z" fill="#fff"/>
</svg>