<svg xmlns="http://www.w3.org/2000/svg" width="256.332" height="64.858"><defs><clipPath id="a"><path data-name="長方形 1" fill="none" d="M0 0h256.332v64.858H0z"/></clipPath><clipPath id="b"><path data-name="長方形 273" fill="none" d="M0 0h49.421v63.616H0z"/></clipPath></defs><g data-name="グループ 1" clip-path="url(#a)"><path data-name="パス 1" d="M94.034 42.93l4.377 3.9a1.1 1.1 0 010 1.641l-6.975 6.184a1.1 1.1 0 00.728 1.92h6.843a1.1 1.1 0 00.73-.278l3.915-3.488a1.1 1.1 0 011.46 0l2.5 2.227a1.1 1.1 0 00.73.278h3.256a1.1 1.1 0 00.732-1.917l-3.728-3.332a1.1 1.1 0 010-1.639l7.258-6.457a1.1 1.1 0 00-.73-1.918h-6.85a1.1 1.1 0 00-.731.278l-4.215 3.757a1.1 1.1 0 01-1.461 0l-3.133-2.8a1.1 1.1 0 00-.731-.278H94.76a1.1 1.1 0 00-.73 1.918" fill="#572a06"/><path data-name="パス 2" d="M121.083 46.832l-.355 1.993a1.1 1.1 0 001.372 1.251l7.374-2.024a1.1 1.1 0 011.372 1.25l-1.06 5.983a1.1 1.1 0 001.081 1.29h5.79a1.1 1.1 0 001.081-.908l1.7-9.7a1.1 1.1 0 01.789-.868l6.5-1.794a1.1 1.1 0 00.789-.867l.358-2.021a1.1 1.1 0 00-1.373-1.249l-24.636 6.8a1.1 1.1 0 00-.789.866" fill="#572a06"/><path data-name="パス 3" d="M151.898 43.777h13.646a1.1 1.1 0 011 1.543l-4.306 9.709a1.1 1.1 0 001 1.543h5.619a1.1 1.1 0 001-.653l5.567-12.549a4.532 4.532 0 10-2.956-3.322h-20.299a1.1 1.1 0 00-1.081.906l-.272 1.53a1.1 1.1 0 001.081 1.29m26.55-4.682a1.549 1.549 0 11-1.549-1.549 1.55 1.55 0 011.549 1.549" fill="#572a06"/><path data-name="パス 4" d="M181.285 56.575h5.436a1.1 1.1 0 00.932-.518l5.154-8.289a1.1 1.1 0 00-.932-1.678h-5.441a1.1 1.1 0 00-.932.518l-5.154 8.289a1.1 1.1 0 00.932 1.678" fill="#572a06"/><path data-name="パス 5" d="M196.175 56.575h10.45a1.1 1.1 0 001.081-.906l.271-1.529a1.1 1.1 0 00-1.081-1.29h-2.039a1.1 1.1 0 01-1.081-1.288l1.8-10.222a1.1 1.1 0 00-1.081-1.288h-5.792a1.1 1.1 0 00-1.081.907l-2.527 14.328a1.1 1.1 0 001.081 1.289" fill="#572a06"/><path data-name="パス 6" d="M67.5 44.624a.784.784 0 00.934-.1l.311-.284-.45 1.824a.464.464 0 00.083.405.638.638 0 00.513.217.826.826 0 00.806-.547l.578-2.345a.443.443 0 00.277.2.737.737 0 00.56-.1.6.6 0 00.265-.812l-.659-1.09.426-1.725a.886.886 0 00.177-.018.467.467 0 00.185.454.733.733 0 00.894-.08l.484-.432h.812l-.216.877h-1.649a.764.764 0 00-.743.515.429.429 0 00.077.376.589.589 0 00.473.2h1.572l-.221.9-2.383 2.152a.706.706 0 00-.255.493.543.543 0 00.16.4.713.713 0 00.908-.055l1.07-.965-.24.973a.463.463 0 00.083.405.639.639 0 00.513.217.826.826 0 00.806-.547l.293-1.19.636 1.041a.5.5 0 00.321.22.782.782 0 00.588-.119.653.653 0 00.277-.875l-1.341-2.215.206-.836h1.374a.771.771 0 00.755-.5.434.434 0 00-.081-.379.6.6 0 00-.481-.211h-1.3l.216-.877h.838a.766.766 0 00.758-.515.428.428 0 00-.077-.374.607.607 0 00-.488-.206h-.761l.19-.771a.458.458 0 00-.084-.4.636.636 0 00-.511-.221 4.146 4.146 0 01-1.592.5l-1.447 1.317a.444.444 0 00-.088-.192.6.6 0 00-.429-.21l.2-.8a.46.46 0 00-.084-.4.637.637 0 00-.511-.221.815.815 0 00-.806.547l-.214.867h-.729a.809.809 0 00-.79.537.448.448 0 00.084.392.624.624 0 00.5.22h.652l-.48 1.946-1.734 1.575a.6.6 0 00-.216.472.47.47 0 00.205.358" fill="#572a06"/><path data-name="パス 7" d="M80.015 45.253a.822.822 0 00-.481.42.5.5 0 000 .4.639.639 0 00.6.335.949.949 0 00.328-.06l4.173-1.51a.815.815 0 00.479-.4.529.529 0 00.023-.421.725.725 0 00-.93-.274l-1.14.406.506-2.052h.839a.792.792 0 00.774-.526.445.445 0 00-.08-.389.613.613 0 00-.492-.212h-3.007a.8.8 0 00-.788.526.438.438 0 00.081.382.63.63 0 00.506.219h.693l-.651 2.639z" fill="#572a06"/><path data-name="パス 8" d="M80.895 39.759a.451.451 0 00.083.4.624.624 0 00.5.216h4.1l.981 5.757a.483.483 0 00.225.34.718.718 0 00.387.105.892.892 0 00.253-.037.743.743 0 00.634-.779l-.915-5.386h1.552a.81.81 0 00.79-.536.456.456 0 00-.08-.4.587.587 0 00-.386-.2.507.507 0 00.122-.393l-.125-.719a.657.657 0 00-.77-.46.716.716 0 00-.5.257.466.466 0 00-.1.364l.128.761a.493.493 0 00.071.18h-.959l-.195-1.17a.674.674 0 00-.855-.445.7.7 0 00-.644.716l.155.9h-3.659a.8.8 0 00-.79.537" fill="#572a06"/><path data-name="パス 9" d="M65.701 56.562h5.392l.026.082a.492.492 0 00.263.3.717.717 0 00.314.068.88.88 0 00.318-.06.724.724 0 00.536-.814l-.634-2.042a.491.491 0 00-.244-.3.9.9 0 00-1.174.375.482.482 0 00-.029.376l.273.891h-2.688l1.983-2.458h3a.793.793 0 00.774-.526.432.432 0 00-.08-.376.617.617 0 00-.5-.213h-6.83a.787.787 0 00-.771.515.444.444 0 00.08.388.613.613 0 00.492.212h2.2l-1.969 2.451h-.532a.8.8 0 00-.774.526.44.44 0 00.082.385.62.62 0 00.491.216" fill="#572a06"/><path data-name="パス 10" d="M65.914 50.318a.736.736 0 00.623.079l4.014-1.127 3.358 1.121a.838.838 0 00.245.035.939.939 0 00.749-.362.527.527 0 00-.273-.839l-3.135-1.039a2.6 2.6 0 00-1.451 0l-3.665 1.05a.8.8 0 00-.641.746.427.427 0 00.182.333" fill="#572a06"/><path data-name="パス 11" d="M68.037 50.294a.792.792 0 00-.774.526.445.445 0 00.08.389.614.614 0 00.492.212h4.338a.793.793 0 00.774-.526.445.445 0 00-.081-.388.614.614 0 00-.492-.212z" fill="#572a06"/><path data-name="パス 12" d="M85.683 51.816a.815.815 0 00.806-.547.46.46 0 00-.084-.4.637.637 0 00-.511-.221h-.995l.491-1.991a.474.474 0 00-.087-.414.661.661 0 00-.531-.229.848.848 0 00-.825.569l-.509 2.066h-1.086a.826.826 0 00-.806.547.462.462 0 00.081.4.639.639 0 00.514.218h1.009l-.969 3.929h-1.47a.826.826 0 00-.806.547.459.459 0 00.084.4.636.636 0 00.511.221h4.243a.827.827 0 00.8-.541.459.459 0 00-.084-.4.636.636 0 00-.511-.221h-1.305l.969-3.929z" fill="#572a06"/><path data-name="パス 13" d="M77.463 52.781a.453.453 0 00.192.36.829.829 0 00.994-.061l.392-.3-.883 3.581a.464.464 0 00.087.4.647.647 0 00.519.229.866.866 0 00.837-.558l.743-3.013.314.393a.5.5 0 00.339.188.757.757 0 00.563-.148.729.729 0 00.305-.483.51.51 0 00-.115-.391l-.985-1.268.082-.335 1.678-1.317a.609.609 0 00.25-.671.631.631 0 00-.637-.379h-.707l.09-.364a.47.47 0 00-.083-.411.65.65 0 00-.523-.222.843.843 0 00-.823.558l-.108.438h-.729a.793.793 0 00-.774.526.444.444 0 00.081.388.613.613 0 00.492.212h1.426l-2.753 2.143a.641.641 0 00-.265.5" fill="#572a06"/><path data-name="パス 14" d="M74.256 34.329a53.479 53.479 0 006.408 0 1.21 1.21 0 001.193-.945l2.628-11.432a.711.711 0 00-.715-.929h-6.521a1.244 1.244 0 00-1.158.929l-2.628 11.432c-.109.472.284.819.791.945m3.454-11.259h4.645l-2.128 9.259a19.134 19.134 0 01-4.649.016z" fill="#572a06"/><path data-name="パス 15" d="M79.998 31.133l.688-2.992a.6.6 0 00-.61-.772h-.098l.156-.677h.378a1.225 1.225 0 001.142-.929.717.717 0 00-.715-.929h-.377l.159-.693a.717.717 0 00-.715-.929 1.225 1.225 0 00-1.142.929l-.159.693h-.394a1.241 1.241 0 00-1.143.929.717.717 0 00.716.929h.394l-.156.677h-.2a1.033 1.033 0 00-.964.772l-.688 2.992c-.1.441.2.709.606.787a14.063 14.063 0 002.157 0 1.12 1.12 0 00.968-.787m-1.332-1.055c-.224.016-.429.016-.6.016l.2-.85h.6z" fill="#572a06"/><path data-name="パス 16" d="M71.631 26.504l.368-.3-1.651 7.181a.8.8 0 00.8 1.039 1.4 1.4 0 001.278-1.039l2.122-9.228.693-.551c.631-.551.75-1.071.454-1.5a1.044 1.044 0 00-1.488-.031l-3.6 2.866a1.161 1.161 0 00-.422 1.5 1.008 1.008 0 001.449.063" fill="#572a06"/><path data-name="パス 17" d="M84.057 34.204a1.183 1.183 0 001.606-.2l5.385-5.275 2.762 4.834a1.5 1.5 0 001.388.882l.255-.016a1.513 1.513 0 001.363-1.134c.149-.646-.173-1.165-.756-1.165h-.063l-3.283-5.716c.027-.047 1.084-4.645 1.084-4.645a.865.865 0 00-.861-1.118 1.5 1.5 0 00-1.375 1.118l-1.035 4.5a1.1 1.1 0 01-.293.52l-6.019 5.842a1.111 1.111 0 00-.157 1.575" fill="#572a06"/><path data-name="パス 18" d="M100.387 24.756a1.383 1.383 0 001.278-1.039l.079-.347h7.117l-.08.347a.8.8 0 00.8 1.039 1.4 1.4 0 001.278-1.039l.311-1.354a.807.807 0 00-.8-1.039h-3.527l.148-.646a.848.848 0 00-.879-1.039 1.481 1.481 0 00-1.372 1.039l-.149.646-3.42.016a1.368 1.368 0 00-1.278 1.039l-.308 1.339a.807.807 0 00.8 1.039" fill="#572a06"/><path data-name="パス 19" d="M98.994 30.061l3.081-.252-.815 3.543a.852.852 0 00.79 1.086 22.42 22.42 0 004.353-.031 1.315 1.315 0 001.226-1.087l.253-1.1a.846.846 0 00-.824-1.071 1.254 1.254 0 00-1.217.913l-.062.268v.016a14.921 14.921 0 01-2.211.031l.622-2.708 4.637-.378a1.369 1.369 0 001.214-1.1.8.8 0 00-.893-.976l-4.483.394.311-1.354 1.367-.331a1.359 1.359 0 001.033-1.275.817.817 0 00-1.109-.724l-4.584 1.1a1.35 1.35 0 00-1.033 1.275.809.809 0 001.093.724l1.027-.22-.217.945-3.219.236a1.422 1.422 0 00-1.233 1.118.808.808 0 00.9.961" fill="#572a06"/><path data-name="パス 20" d="M112.594 31.763h6.282l-.25 1.086h-.095a1.383 1.383 0 00-1.278 1.039.794.794 0 00.8 1.039h1.134a1.3 1.3 0 001.293-1.1l.474-2.063h1.732a1.383 1.383 0 001.278-1.039.8.8 0 00-.8-1.055h-1.756a.772.772 0 00-.463-.724l.641-.047a1.565 1.565 0 001.322-1.136l.829-3.606a.79.79 0 00-.749-1.055h-2.063l.113-.488h3.259a1.21 1.21 0 001.1-.9.717.717 0 00-.722-.9h-3.228l.04-.173a.8.8 0 00-.816-1.039 1.383 1.383 0 00-1.278 1.039l-.04.173h-3.425a1.211 1.211 0 00-1.1.9.7.7 0 00.691.9h3.432l-.112.488h-2.031a1.4 1.4 0 00-1.266 1.055l-.829 3.606a.869.869 0 00.7 1.118 24.472 24.472 0 004.631.126 1.521 1.521 0 00-.672.662h-6.3a1.4 1.4 0 00-1.282 1.055.807.807 0 00.8 1.039m5.283-4.488c-.252 0-.705-.016-.969-.031l.127-.551h.976zm.442-1.921h-.976l.127-.551h.976zm2.221-.551h.96l-.127.551h-.96zm-.561 2.441l.127-.551h.961l-.116.5c-.291.031-.719.047-.971.047" fill="#572a06"/><path data-name="パス 21" d="M113.332 32.865l-.137.6a.8.8 0 00.8 1.039 1.368 1.368 0 001.278-1.039l.137-.6a.8.8 0 00-.8-1.039 1.4 1.4 0 00-1.278 1.039" fill="#572a06"/><path data-name="パス 22" d="M134.022 28.172h.583a1.388 1.388 0 001.282-1.055.8.8 0 00-.8-1.039h-.583a1.4 1.4 0 00-1.278 1.039.811.811 0 00.8 1.055" fill="#572a06"/><path data-name="パス 23" d="M132.371 29.735a1.368 1.368 0 00-1.278 1.039.8.8 0 00.8 1.039h3.354l-.452 1.968a.807.807 0 00.8 1.039 1.383 1.383 0 001.276-1.042l.452-1.968h.457a1.383 1.383 0 001.278-1.039.794.794 0 00-.8-1.039h-.456l1.846-8.031a.794.794 0 00-.8-1.039 1.383 1.383 0 00-1.278 1.039l-1.846 8.031z" fill="#572a06"/><path data-name="パス 24" d="M134.688 25.275h.583a1.369 1.369 0 001.278-1.039.8.8 0 00-.8-1.039h-.583a1.4 1.4 0 00-1.278 1.039.8.8 0 00.8 1.039" fill="#572a06"/><path data-name="パス 25" d="M127.539 30.267l.813-.662-.931 4.047a.8.8 0 00.8 1.055 1.4 1.4 0 001.282-1.055l1.007-4.377a1.154 1.154 0 001.333-.252 1.039 1.039 0 00.175-1.449l-.919-.866h.756a1.354 1.354 0 001.239-1.008.781.781 0 00-.776-1.008h-.756l.337-1.464.454-.126a1.36 1.36 0 001.005-1.291.832.832 0 00-1.147-.693l-3.245.9a1.326 1.326 0 00-.99 1.291.814.814 0 001.132.693l.568-.142-.192.835h-1.245A1.338 1.338 0 00127 25.703a.775.775 0 00.776 1.008h1.244l-.015.063-2.572 2.079a1.066 1.066 0 00-.31 1.417.992.992 0 001.417 0" fill="#572a06"/><path data-name="パス 26" d="M218.534 56.798a1.506 1.506 0 001.392-1.148l.472-2.055h3l-.143.624a1.81 1.81 0 00-1.635 1.329 1.045 1.045 0 001.019 1.35h.946a1.643 1.643 0 001.629-1.39c.088-.383.58-2.437 1.067-4.552a.84.84 0 00.366.423 1.437 1.437 0 001.752-.524l.113-.141h1.45l-.2.866h-2.215a1.773 1.773 0 00-1.655 1.329 1.036 1.036 0 001.043 1.329h2.215l-.4 1.813a1.012 1.012 0 001 1.329 1.793 1.793 0 001.655-1.329l.4-1.813h1.349a1.789 1.789 0 001.635-1.329 1.024 1.024 0 00-1.023-1.329h-1.346l.2-.866h1.067a1.793 1.793 0 001.655-1.329 1.027 1.027 0 00-1.043-1.33h-1.067l.15-.564a1 1 0 00-.958-1.35 1.846 1.846 0 00-1.7 1.35l-.149.564h-.4l.03-.04a.95.95 0 00-.2-1.49 1.353 1.353 0 00-1.64.564l-1.781 2.578c.472-2.054.909-3.867.909-3.867.1-.443-.037-1.067-.627-1.128l-.77.02.731-.725a2.615 2.615 0 00.76-1.289l.2-.886a.869.869 0 00-.844-1.148h-1.591c.481-.6.574-1.269.072-1.712a1.493 1.493 0 00-1.974.262l-3.052 3.2a1.319 1.319 0 00-.169 1.873 1.432 1.432 0 001.938-.282l1.006-1.047h1.369c-.494.483-1.319 1.269-1.758 1.692h-1.43a1.528 1.528 0 00-1.421 1.188l-2.28 9.829a.884.884 0 00.884 1.148m5.788-9.849h.6l-.227.987h-.6zm-.752 3.182h.624l-.268 1.168h-.624zm-1.625-3.182h.6l-.227.987h-.6zm-.731 3.182h.6l-.268 1.168h-.6z" fill="#005dab"/><path data-name="パス 27" d="M228.533 46.063a1.535 1.535 0 001.932-.523l3.253-3.726h.262l-.4 1.732a1.783 1.783 0 00-1.429 1.309 1.024 1.024 0 001.024 1.329h1.128a1.665 1.665 0 001.593-1.148l1.06-4.612a.971.971 0 00-1.023-1.067h-5.216a1.625 1.625 0 00-1.525 1.289.913.913 0 00.96 1.168h.564c-.6.685-1.558 1.611-2.292 2.437a1.186 1.186 0 00.107 1.813" fill="#005dab"/><path data-name="パス 28" d="M240.707 47.07c.178-.161.336-.322.509-.463l-1.982 8.62a1.024 1.024 0 001.023 1.329 1.789 1.789 0 001.635-1.329l2.681-11.662.89-.806a1.338 1.338 0 00.29-1.873 1.365 1.365 0 00-1.905.141s-3.857 3.464-4.781 4.33a1.341 1.341 0 00-.29 1.873 1.419 1.419 0 001.93-.161" fill="#005dab"/><path data-name="パス 29" d="M245.584 43.465a1.036 1.036 0 001.044 1.329h2.054l-5.5 6.143a1.262 1.262 0 00-.043 1.853 1.515 1.515 0 001.945-.4l3.234-3.646-.519 2.256h-.322a1.77 1.77 0 00-1.635 1.329 1.016 1.016 0 001.023 1.329h.322l-.5 2.2a1.032 1.032 0 001.023 1.329 1.77 1.77 0 001.635-1.329l.5-2.2h.141a1.75 1.75 0 001.635-1.329A1.024 1.024 0 00250.598 51h-.141l.509-2.215 1.534 3.927a1.448 1.448 0 001.254.765h.261a1.729 1.729 0 001.6-1.349 1.022 1.022 0 00-.686-1.309l-2.442-6.022h2.175a1.789 1.789 0 001.635-1.329 1.024 1.024 0 00-1.024-1.329h-2.775l.514-2.236a1.024 1.024 0 00-1.024-1.329 1.788 1.788 0 00-1.634 1.329l-.514 2.236h-2.6a1.773 1.773 0 00-1.655 1.329" fill="#005dab"/><g data-name="グループ 445"><g data-name="グループ 444" clip-path="url(#b)" transform="translate(2.511 .813)"><path data-name="パス 1884" d="M28.182 41.943a7.42 7.42 0 11-7.433 7.42 7.426 7.426 0 017.433-7.42z" fill="#fff"/><path data-name="パス 1883" d="M30.228 25.436c5.235 0 9.479 3.283 9.479 7.334s-4.244 7.334-9.479 7.334-9.479-3.284-9.479-7.334 4.244-7.334 9.479-7.334z" fill="#fff"/><path data-name="パス 1872" d="M12.762 15.717c.116.925.229 1.5.229 1.5a15.385 15.385 0 012.433-1.639 21.7 21.7 0 012.776-1.273c4.949-1.88 11-2.453 15.682-2.662 1.024-.047 1.986-.076 2.852-.1h.169l.3-.007c.942-.022 1.76-.037 2.414-.06h.172c3.426-.145 3.537-1.15.861-1.607l-.184-.03a20.062 20.062 0 00-3.041-.194h-.181c-.176 0-.355 0-.54.009a18.678 18.678 0 00-1.041-2.9C32.151-.879 25.33.033 25.33.033a18.022 18.022 0 00-9.664 2.9 6.8 6.8 0 00-2.339 3.357 13.694 13.694 0 00-.637 2.775 21.25 21.25 0 00-.167 2.254q-.007.3-.007.6c0 .321.006.636.016.942.038 1.106.134 2.1.229 2.855M23.516 5.357l1.316.132c.191.019.273-.03.293-.174l.07-.5a.544.544 0 01.052.026l.772.545c.195.138.389.276.584.41a.278.278 0 00.251.047c.093-.031.092-.1.087-.17a.316.316 0 00-.028-.1L26.1 3.721c-.038-.087-.072-.175-.115-.278l.734.255c.234.082.374.048.455-.137l.262-.6.345-.787 1.105 1.315a.314.314 0 00.439.083c.172-.09.341-.183.512-.274.029-.016.06-.028.1-.047a.46.46 0 01.005.063l-.055 1.047c-.018.34-.039.679-.051 1.016 0 .091 0 .2.135.237s.206-.047.27-.123l.813-.97c.019-.022.04-.044.07-.075.086.168.163.321.242.473a.223.223 0 00.288.113l.742-.191c.155-.04.309-.078.474-.118 0 .035 0 .056-.006.076l-.092.534c-.036.209-.072.417-.105.625-.021.135.013.174.167.219l.471.14-.093.077-1.826 1.568a.236.236 0 00-.07.351c.081.142.158.285.242.436h-.565l-1.642.02c-.147 0-.221.065-.2.179l.162.757.158.74c.023.109.036.189.058.307l-.364.043c-.048-.366-.1-.739-.145-1.109a52.696 52.696 0 00-.1-.744c-.011-.083-.121-.132-.236-.11l-1.768.342-.5.094c.032-.181.057-.346.09-.511.028-.139-.042-.237-.2-.313q-1.23-.591-2.511-1.21c-.09-.043-.187-.079-.281-.118v-.017c.173-.083.343-.168.516-.248a.129.129 0 00.085-.179.592.592 0 00-.049-.1c-.2-.339-.4-.681-.606-1.026-.037-.063-.07-.128-.11-.2.067 0 .112.006.158.011" fill="#f5d10f"/><path data-name="パス 1873" d="M9.168 23.084a6.38 6.38 0 001.249-.123 17.5 17.5 0 00-.523 4.23c0 8.065 3.4 12.794 10.516 14.482-1.167.293-2.7.987-3.882.91-.986-.064-1.69-.936-2.332-1.687a4.308 4.308 0 00-1.384-1.14l.968 2.226 2.09 4.802a18.451 18.451 0 003.74.308c-2.61 4.919 1.137 9.914 1.137 9.914v1l1.479 3.408-1.333.551a1.634 1.634 0 00-.145-.281v.273a21.6 21.6 0 005.782 0c.965-4.17 1.34-4.383 2.833-4.191 1.316.17 5.88 4.275 5.88 4.275 2.535-.039 4.464-.039 4.464-.039.528-1.689-1.929-4.512-1.89-6.46a330.05 330.05 0 01.219-7.107l.022-.555a10.405 10.405 0 005.3-1.856 9.1 9.1 0 00.714-.583 7.669 7.669 0 001.294-1.422 3.569 3.569 0 00.359-.68 2.271 2.271 0 00-.436-2.5 5.673 5.673 0 00-2.263 1.226 3.412 3.412 0 01-.476.25 5.5 5.5 0 01-3.988-.3 10.9 10.9 0 002.846-1.078c6.274-3.444 8.86-12.765 5.442-20.362a16.642 16.642 0 00-1.387-2.487 6.361 6.361 0 10-8.227-8.453h.181a20.139 20.139 0 013.04.194l.185.031a3.353 3.353 0 112.689 5.665 18.049 18.049 0 00-3.569-2.722 3.278 3.278 0 01-.06-.619 3.387 3.387 0 01.079-.717h-.172c-.656.023-1.473.038-2.415.06l-.3.007h-.169c-.866.021-1.828.051-2.852.1-4.68.21-10.733.782-15.682 2.663a21.74 21.74 0 00-2.765 1.287 15.34 15.34 0 00-2.432 1.639s-.114-.575-.23-1.5a32.38 32.38 0 01-.229-2.855c-.01-.306-.016-.621-.016-.942 0-.2 0-.4.007-.6a6.32 6.32 0 00-2.889-.938 6.526 6.526 0 00-.466-.019 6.361 6.361 0 100 12.721m20.155 31.716a6.1 6.1 0 01-5.788-6.368 6.1 6.1 0 015.788-6.368 6.018 6.018 0 015.748 5.621 7.263 7.263 0 01.041.747 7.049 7.049 0 01-.039.719 6.02 6.02 0 01-5.75 5.649m6.285-31.292a1.85 1.85 0 11-1.849 1.85 1.85 1.85 0 011.849-1.85m1.192 8.57c0 3.338-3.331 6.044-7.441 6.044s-7.436-2.71-7.436-6.044 3.331-6.044 7.441-6.044 7.441 2.706 7.441 6.044m-14.21-8.5a1.85 1.85 0 11-1.851 1.85 1.849 1.849 0 011.851-1.85M6.537 14.629a3.347 3.347 0 012.56-1.273h.071a3.361 3.361 0 11-2.631 1.277" fill="#ef8337"/><path data-name="パス 1874" d="M9.395 38.583a2.511 2.511 0 00-2.291-.47 2.152 2.152 0 00-.989.715 3.073 3.073 0 00-.535 1.059 5.323 5.323 0 001.852 5.418 2.726 2.726 0 001.748.574 2.057 2.057 0 00.543-.1 2.509 2.509 0 001.523-1.774c.015-.051.026-.1.039-.157a5.066 5.066 0 00-.174-2.822 5.691 5.691 0 00-.312-.74 4.752 4.752 0 00-1.4-1.7" fill="#ef8337"/><path data-name="パス 1875" d="M9.168 20.063a3.355 3.355 0 000-6.71h-.071a3.353 3.353 0 00.071 6.706" fill="#6a3906"/><path data-name="パス 1876" d="M43.335 15.526a3.353 3.353 0 10-2.689-5.666c2.677.457 2.565 1.462-.861 1.608a3.3 3.3 0 00-.019 1.336 18.049 18.049 0 013.569 2.722" fill="#6a3906"/><path data-name="パス 1877" d="M22.598 27.285a1.85 1.85 0 10-1.85-1.85 1.849 1.849 0 001.85 1.85" fill="#6a3906"/><path data-name="パス 1878" d="M35.615 27.213a1.85 1.85 0 10-1.85-1.85 1.85 1.85 0 001.85 1.85" fill="#6a3906"/><path data-name="パス 1879" d="M28.983 35.158a3.545 3.545 0 01-2.681-.882 4.142 4.142 0 01-1.542-3.251.76.76 0 10-1.52 0 5.624 5.624 0 002.1 4.428 5.321 5.321 0 003.258 1.262 3.45 3.45 0 00.687-.067.76.76 0 10-.3-1.491" fill="#6a3906"/><path data-name="パス 1880" d="M29.75 28.848a2.262 2.262 0 102.266-2.262 2.262 2.262 0 00-2.262 2.262" fill="#6a3906"/><path data-name="パス 1881" d="M6.12 38.828a2.152 2.152 0 01.989-.715 2.511 2.511 0 012.291.47 4.747 4.747 0 011.4 1.7 5.691 5.691 0 01.312.74 5.066 5.066 0 01.174 2.822c-.013.052-.024.106-.039.157a2.509 2.509 0 01-1.523 1.774 2.057 2.057 0 01-.542.1l3.487 8.021 4.231 9.718 1.333-.55a1.352 1.352 0 01.78-1.868 1.29 1.29 0 011.738.486 1.629 1.629 0 01.148.281l1.334-.55-1.485-3.408-2.743-6.309-2.135-4.91-2.089-4.805-.968-2.226-3.256-7.49-4.223-9.717L4 23.1s.726 1.45-.641 2a1.608 1.608 0 01-2.025-.9L0 24.751l4.224 9.717z" fill="#6a3906"/><path data-name="パス 1882" d="M24.073 6.575a.569.569 0 01.049.1.13.13 0 01-.085.179c-.174.081-.344.165-.516.248v.017c.094.039.19.075.281.118l2.511 1.21c.158.076.228.174.2.313-.033.165-.059.33-.09.511l.5-.094 1.769-.342c.114-.022.224.028.236.11.033.25.064.5.1.744.049.37.1.744.146 1.109l.363-.043c-.022-.118-.034-.2-.057-.307l-.158-.74-.161-.757c-.025-.114.049-.178.2-.179l1.637-.013h.564l-.242-.437a.235.235 0 01.07-.351l1.823-1.577.092-.077-.471-.14c-.154-.045-.188-.085-.167-.22.032-.208.069-.416.1-.625l.093-.534c0-.021 0-.042.006-.077l-.473.118-.742.191a.222.222 0 01-.288-.112c-.079-.152-.156-.3-.243-.474-.029.032-.051.053-.069.075l-.812.975c-.064.076-.135.16-.27.123s-.138-.147-.135-.237c.013-.338.033-.676.052-1.016s.037-.7.055-1.047a.46.46 0 00-.005-.063c-.041.019-.072.032-.1.047-.171.091-.34.184-.512.274a.314.314 0 01-.439-.083l-1.1-1.315-.346.787-.261.6c-.088.2-.21.223-.455.137l-.734-.255c.043.1.077.191.116.278l.813 1.853a.332.332 0 01.028.1c.006.068.006.139-.087.17a.278.278 0 01-.251-.047 69.123 69.123 0 01-.584-.41l-.772-.545a.513.513 0 00-.052-.026l-.07.5c-.02.144-.1.193-.293.174l-1.316-.132c-.045 0-.09-.007-.158-.012.04.074.073.139.11.2q.3.518.606 1.027" fill="#6a3906"/></g></g></g></svg>