<svg xmlns="http://www.w3.org/2000/svg" width="118.943" height="153.627"><defs><clipPath id="a"><path data-name="長方形 273" fill="none" d="M0 0h118.943v153.627H0z"/></clipPath></defs><g data-name="グループ 445"><g data-name="グループ 444" clip-path="url(#a)"><path data-name="パス 1884" d="M69.935 58.742c11.046 0 20 7.611 20 17s-8.954 17-20 17-20-7.611-20-17 8.954-17 20-17z" fill="#fff"/><path data-name="パス 1883" d="M70.349 101.169c8.486 0 15.365 7.51 15.365 16.775s-6.879 16.775-15.365 16.775-15.364-7.511-15.364-16.775 6.879-16.775 15.364-16.775z" fill="#fff"/><path data-name="パス 1872" d="M30.713 37.958c.278 2.233.552 3.62.552 3.622a37.019 37.019 0 015.856-3.958 52.131 52.131 0 016.68-3.073c11.91-4.541 26.48-5.923 37.742-6.43 2.465-.112 4.779-.183 6.863-.236l.407-.01.713-.017c2.267-.053 4.235-.09 5.81-.146l.221-.01.19-.01c8.244-.351 8.513-2.777 2.072-3.881-.147-.025-.291-.05-.443-.074a48.121 48.121 0 00-7.318-.469h-.435c-.424 0-.855.01-1.3.022A45.207 45.207 0 0085.82 16.3C77.375-2.122 60.957.081 60.957.081s-13.2-.249-23.254 6.995a16.416 16.416 0 00-5.629 8.116 33.164 33.164 0 00-1.533 6.7 51.488 51.488 0 00-.4 5.444q-.017.735-.017 1.454c0 .776.014 1.536.039 2.275.091 2.672.322 5.066.552 6.893m25.882-25.02l3.168.318c.459.046.657-.072.706-.421l.169-1.208a1.306 1.306 0 01.126.062c.624.442 1.241.882 1.857 1.316.469.333.936.667 1.406.99a.668.668 0 00.6.114c.224-.075.221-.247.209-.411a.766.766 0 00-.068-.239q-.963-2.206-1.957-4.473c-.091-.21-.173-.422-.277-.672.635.221 1.2.417 1.767.617.59.207.9.115 1.095-.331.212-.483.419-.969.631-1.454.273-.628.548-1.257.83-1.9.909 1.085 1.789 2.137 2.66 3.175a.755.755 0 001.056.2c.414-.218.821-.443 1.232-.662.071-.037.145-.068.245-.114a1.113 1.113 0 01.016.155q-.064 1.271-.133 2.529c-.043.822-.094 1.64-.123 2.454-.008.221-.01.483.324.574s.5-.112.65-.3l1.956-2.343c.046-.054.1-.106.167-.182.208.407.393.776.583 1.143a.535.535 0 00.692.272c.6-.154 1.193-.31 1.787-.461.372-.1.745-.187 1.14-.286-.007.083-.007.135-.015.185-.073.43-.149.861-.221 1.29-.086.5-.174 1.007-.253 1.51-.05.325.03.421.4.529s.734.218 1.133.337c-.091.078-.158.131-.223.186q-2.19 1.889-4.4 3.79a.571.571 0 00-.169.848c.2.343.381.687.583 1.054-.116.006-.2.011-.281.011h-1.078l-3.94.032c-.354 0-.533.157-.475.432.13.617.259 1.219.389 1.829l.379 1.787c.055.262.086.457.138.742l-.876.1-.35-2.679-.234-1.8c-.026-.2-.292-.319-.569-.267l-4.256.825c-.386.075-.774.147-1.2.226.076-.436.137-.836.216-1.235.068-.335-.1-.572-.482-.755q-2.96-1.427-6.042-2.923c-.217-.1-.45-.19-.675-.285l-.01-.04c.415-.2.825-.405 1.241-.6a.312.312 0 00.2-.432 1.431 1.431 0 00-.118-.235c-.48-.819-.969-1.646-1.457-2.479-.09-.153-.167-.31-.264-.487.162.011.27.015.379.026" fill="#f5d10f"/><path data-name="パス 1873" d="M22.065 55.748a15.3 15.3 0 003.006-.3 42.4 42.4 0 00-1.258 10.215c0 19.476 8.195 30.9 25.309 34.973-2.809.708-6.5 2.384-9.342 2.2-2.372-.156-4.068-2.259-5.612-4.074a10.376 10.376 0 00-3.33-2.752l2.329 5.376 5.028 11.6a44.259 44.259 0 009 .744c-6.282 11.879 2.738 23.942 2.738 23.942v2.408l3.567 8.228-3.208 1.33a3.952 3.952 0 00-.358-.679v.66a51.8 51.8 0 0013.914 0c2.326-10.071 3.226-10.583 6.818-10.119 3.168.411 14.151 10.325 14.151 10.325 6.1-.094 10.744-.094 10.744-.094 1.272-4.08-4.643-10.9-4.548-15.6a825.909 825.909 0 01.527-17.162l.054-1.341a24.987 24.987 0 0012.752-4.481 21.923 21.923 0 001.718-1.408 18.5 18.5 0 003.114-3.434 8.628 8.628 0 00.864-1.641c.787-2.023.573-4.59-1.05-6.026-2.076.189-3.637 1.837-5.431 2.948a8.2 8.2 0 01-1.145.6c-3.036 1.269-6.52.446-9.6-.719a26.185 26.185 0 006.851-2.6c15.1-8.317 21.324-30.828 13.1-49.174a40.229 40.229 0 00-3.338-6.006 15.349 15.349 0 10-19.8-20.414h.435a48.306 48.306 0 017.317.468c.155.024.3.05.444.075a8.083 8.083 0 116.473 13.681 43.456 43.456 0 00-8.59-6.573 7.942 7.942 0 01-.144-1.5 8.205 8.205 0 01.19-1.732l-.19.01-.223.007c-1.578.056-3.544.092-5.811.146l-.711.017-.407.01c-2.084.051-4.4.124-6.865.235-11.264.508-25.832 1.889-37.742 6.431a52.237 52.237 0 00-6.682 3.073 36.913 36.913 0 00-5.854 3.958s-.274-1.389-.554-3.622a77.64 77.64 0 01-.551-6.893 67.371 67.371 0 01-.022-3.729 15.174 15.174 0 00-6.953-2.266c-.37-.026-.745-.046-1.121-.046a15.2 15.2 0 00-6.985 1.694 15.368 15.368 0 006.982 29.031m48.522 76.6c-7.694 0-13.93-6.885-13.93-15.378s6.236-15.378 13.93-15.378c7.14 0 13.022 5.931 13.833 13.574a17.6 17.6 0 01.1 1.8 17.08 17.08 0 01-.093 1.736c-.781 7.675-6.678 13.643-13.838 13.643m15.123-75.56a4.467 4.467 0 11-4.451 4.463 4.461 4.461 0 014.451-4.467m2.862 20.689c0 8.061-8.017 14.6-17.907 14.6s-17.909-6.534-17.909-14.6 8.017-14.6 17.909-14.6 17.907 6.54 17.907 14.6M54.387 56.959a4.467 4.467 0 11-4.454 4.467 4.458 4.458 0 014.454-4.467M15.733 35.328a8.045 8.045 0 016.16-3.075c.058 0 .113-.008.172-.008a8.106 8.106 0 11-6.332 3.083" fill="#ef8337"/><path data-name="パス 1874" d="M22.618 93.174a6.027 6.027 0 00-5.514-1.135 5.181 5.181 0 00-2.379 1.728 7.43 7.43 0 00-1.288 2.557 12.88 12.88 0 004.462 13.083 6.547 6.547 0 004.207 1.387 4.935 4.935 0 001.306-.253 6.054 6.054 0 003.666-4.284c.036-.122.062-.253.093-.379a12.273 12.273 0 00-.419-6.814 13.769 13.769 0 00-.751-1.787 11.468 11.468 0 00-3.383-4.103" fill="#ef8337"/><path data-name="パス 1875" d="M22.065 48.448a8.1 8.1 0 000-16.2c-.058 0-.113.007-.17.008a8.1 8.1 0 00.17 16.195" fill="#6a3906"/><path data-name="パス 1876" d="M104.294 37.495a8.1 8.1 0 10-6.473-13.683c6.442 1.1 6.174 3.53-2.072 3.883a7.993 7.993 0 00-.046 3.227 43.456 43.456 0 018.59 6.573" fill="#6a3906"/><path data-name="パス 1877" d="M54.387 65.892a4.467 4.467 0 10-4.452-4.467 4.458 4.458 0 004.452 4.467" fill="#6a3906"/><path data-name="パス 1878" d="M85.714 65.718a4.467 4.467 0 10-4.452-4.467 4.46 4.46 0 004.452 4.467" fill="#6a3906"/><path data-name="パス 1879" d="M69.754 84.902c-1.85.376-4.443-.482-6.452-2.13a10.014 10.014 0 01-3.712-7.852 1.83 1.83 0 10-3.659 0 13.6 13.6 0 005.054 10.694 12.781 12.781 0 007.842 3.048 8.276 8.276 0 001.652-.161 1.836 1.836 0 00-.725-3.6" fill="#6a3906"/><path data-name="パス 1880" d="M71.599 69.67a5.445 5.445 0 105.445-5.463 5.453 5.453 0 00-5.445 5.463" fill="#6a3906"/><path data-name="パス 1881" d="M14.73 93.768a5.181 5.181 0 012.379-1.726 6.027 6.027 0 015.514 1.135 11.454 11.454 0 013.377 4.1 13.77 13.77 0 01.751 1.787 12.273 12.273 0 01.419 6.814c-.03.126-.057.257-.093.379a6.054 6.054 0 01-3.664 4.285 4.936 4.936 0 01-1.305.253l8.391 19.37 10.167 23.463 3.208-1.329a3.269 3.269 0 011.878-4.512 3.1 3.1 0 014.184 1.175 3.94 3.94 0 01.356.678l3.209-1.329-3.565-8.228-6.6-15.235-5.141-11.861-5.027-11.6-2.329-5.376L23 77.92 12.836 54.455l-3.209 1.33s1.747 3.5-1.543 4.824-4.875-2.167-4.875-2.167L0 59.772l10.167 23.47z" fill="#6a3906"/><path data-name="パス 1882" d="M57.937 15.878a1.378 1.378 0 01.118.235.314.314 0 01-.2.432c-.418.194-.828.4-1.241.6l.01.04c.226.094.458.181.675.285q3.085 1.491 6.042 2.923c.381.183.548.421.482.755-.08.4-.141.8-.216 1.235l1.2-.226 4.257-.825c.274-.054.54.067.567.267.08.6.155 1.2.234 1.8l.352 2.679.873-.1c-.053-.285-.082-.479-.137-.742l-.381-1.787c-.128-.596-.257-1.214-.388-1.829-.06-.276.119-.43.475-.433 1.326-.008 2.639-.021 3.94-.031h1.077c.083 0 .166-.007.282-.011-.2-.367-.389-.711-.583-1.055a.569.569 0 01.169-.847l4.4-3.79c.064-.056.129-.11.221-.186-.4-.119-.765-.229-1.133-.337s-.453-.206-.4-.53c.077-.5.166-1 .252-1.508.073-.429.149-.86.223-1.29.008-.05.008-.1.015-.186-.4.1-.769.192-1.139.286l-1.787.461a.533.533 0 01-.692-.271c-.191-.367-.376-.736-.584-1.144-.069.078-.122.128-.166.182q-.98 1.171-1.957 2.344c-.155.185-.325.386-.65.3s-.332-.354-.325-.574c.032-.815.08-1.633.126-2.454.043-.839.089-1.682.131-2.529a1.114 1.114 0 00-.012-.153c-.1.046-.174.076-.245.114-.411.219-.818.444-1.233.661a.755.755 0 01-1.056-.2l-2.671-3.191-.832 1.9c-.21.485-.417.969-.628 1.453-.2.447-.507.539-1.1.331-.565-.2-1.133-.394-1.767-.615.1.25.185.461.278.671q.988 2.268 1.956 4.474a.8.8 0 01.068.239c.014.164.014.336-.21.411a.668.668 0 01-.6-.114c-.469-.325-.936-.657-1.406-.99l-1.857-1.316a1.232 1.232 0 00-.125-.062c-.058.417-.115.812-.169 1.208-.048.347-.246.467-.706.421q-1.568-.161-3.168-.32c-.109-.011-.217-.017-.381-.028.1.179.176.335.266.487q.733 1.252 1.457 2.48" fill="#6a3906"/></g></g></svg>