<?xml version="1.0" encoding="UTF-8"?>
<svg id="_レイヤー_1" xmlns="http://www.w3.org/2000/svg" version="1.1" viewBox="0 0 150 120">
  <!-- Generator: Adobe Illustrator 29.6.1, SVG Export Plug-In . SVG Version: 2.1.1 Build 9)  -->
  <g>
    <path d="M147.65,78.49H63.55c-3.23,0-5.85-2.62-5.85-5.85V28.45c0-1.36-1.11-2.47-2.47-2.47H20.91c-.99,0-1.88.59-2.27,1.5L.08,70.77c-.13.31-.2.64-.2.97v31.11c0,1.36,1.11,2.47,2.47,2.47h8.46c1.16,0,2.14-.81,2.4-1.94,1.97-8.41,9.51-14.7,18.52-14.7s16.55,6.28,18.52,14.7c.26,1.13,1.25,1.94,2.4,1.94h47.12c1.16,0,2.14-.81,2.4-1.94,1.97-8.41,9.51-14.7,18.52-14.7s16.55,6.28,18.51,14.7c.26,1.13,1.25,1.94,2.4,1.94h6.06c1.36,0,2.47-1.11,2.47-2.47v-21.9c0-1.36-1.11-2.47-2.47-2.47h0ZM50.88,60.94c0,1.36-1.11,2.47-2.47,2.47h-30.2c-1.76,0-2.96-1.79-2.28-3.42l10.07-24.26c.38-.92,1.28-1.52,2.28-1.52h20.13c1.36,0,2.47,1.11,2.47,2.47v24.26Z" fill="#572a06"/>
    <path d="M40.74,38.85c-3.95-.63-7.55,1.12-9.6,4.03-3.46-.48-5.77-.53-5.89,0-.11.49,1.72,1.37,4.68,2.36-.36,1.03-.57,2.12-.57,3.28,0,5.4,4.38,9.79,9.79,9.79.15,0,.29-.02.44-.02.17,0,.35,0,.52-.03.06,0,.11-.02.17-.02,3.44-.37,6.47-2.58,7.85-5.82.05-.11.09-.22.13-.33.06-.15.12-.3.17-.46.59-1.77.72-3.74.13-5.81-1.02-3.6-4.11-6.36-7.8-6.95l-.02-.02Z" fill="#572a06"/>
    <path d="M31.72,95.45c-5.95,0-10.92,4.25-12.04,9.88-.16.78-.24,1.58-.24,2.4,0,.33.02.65.05.98.09,1.18.36,2.31.76,3.37,1.76,4.63,6.23,7.92,11.46,7.92s9.7-3.3,11.46-7.92c.41-1.06.67-2.19.76-3.37.02-.32.05-.65.05-.98,0-.82-.08-1.62-.24-2.4-1.12-5.62-6.09-9.88-12.04-9.88h.02Z" fill="#572a06"/>
    <path d="M120.68,95.45c-5.95,0-10.92,4.25-12.04,9.88-.16.78-.24,1.58-.24,2.4,0,.33.02.65.05.98.09,1.18.36,2.31.76,3.37,1.76,4.63,6.23,7.92,11.46,7.92s9.7-3.3,11.46-7.92c.41-1.06.67-2.19.76-3.37.03-.32.05-.65.05-.98,0-.82-.08-1.62-.24-2.4-1.12-5.62-6.09-9.88-12.04-9.88h.02Z" fill="#572a06"/>
  </g>
  <rect x="62.9" y="25.98" width="87.1" height="47.69" rx="2.6" ry="2.6" fill="#8dc33c"/>
  <g>
    <polygon points="108 21.47 104.9 21.47 102.46 3.67 110.44 3.67 108 21.47" fill="#e00000"/>
    <g>
      <polygon points="100.59 21.45 97.92 23.04 86.74 8.98 93.59 4.91 100.59 21.45" fill="#e00000"/>
      <polygon points="112.31 21.45 114.98 23.04 126.16 8.98 119.3 4.91 112.31 21.45" fill="#e00000"/>
    </g>
  </g>
</svg>