<?xml version="1.0" encoding="UTF-8"?>
<svg id="_レイヤー_1" xmlns="http://www.w3.org/2000/svg" version="1.1" viewBox="0 0 150 120">
  <!-- Generator: Adobe Illustrator 29.6.1, SVG Export Plug-In . SVG Version: 2.1.1 Build 9)  -->
  <g>
    <g>
      <path d="M147.65,78.49H63.55c-3.23,0-5.85-2.62-5.85-5.85V28.45c0-1.36-1.11-2.47-2.47-2.47H20.91c-.99,0-1.88.59-2.27,1.5L.08,70.77c-.13.31-.2.64-.2.97v31.11c0,1.36,1.11,2.47,2.47,2.47h8.46c1.16,0,2.14-.81,2.4-1.94,1.97-8.41,9.51-14.7,18.52-14.7s16.55,6.28,18.52,14.7c.26,1.13,1.25,1.94,2.4,1.94h47.12c1.16,0,2.14-.81,2.4-1.94,1.97-8.41,9.51-14.7,18.52-14.7s16.55,6.28,18.51,14.7c.26,1.13,1.25,1.94,2.4,1.94h6.06c1.36,0,2.47-1.11,2.47-2.47v-21.9c0-1.36-1.11-2.47-2.47-2.47h0ZM50.88,60.94c0,1.36-1.11,2.47-2.47,2.47h-30.2c-1.76,0-2.96-1.79-2.28-3.42l10.07-24.26c.38-.92,1.28-1.52,2.28-1.52h20.13c1.36,0,2.47,1.11,2.47,2.47v24.26Z" fill="#572a06"/>
      <path d="M40.74,38.85c-3.95-.63-7.55,1.12-9.6,4.03-3.46-.48-5.77-.53-5.89,0-.11.49,1.72,1.37,4.68,2.36-.36,1.03-.57,2.12-.57,3.28,0,5.4,4.38,9.79,9.79,9.79.15,0,.29-.02.44-.02.17,0,.35,0,.52-.03.06,0,.11-.02.17-.02,3.44-.37,6.47-2.58,7.85-5.82.05-.11.09-.22.13-.33.06-.15.12-.3.17-.46.59-1.77.72-3.74.13-5.81-1.02-3.6-4.11-6.36-7.8-6.95l-.02-.02Z" fill="#572a06"/>
      <path d="M31.72,95.45c-5.95,0-10.92,4.25-12.04,9.88-.16.78-.24,1.58-.24,2.4,0,.33.02.65.05.98.09,1.18.36,2.31.76,3.37,1.76,4.63,6.23,7.92,11.46,7.92s9.7-3.3,11.46-7.92c.41-1.06.67-2.19.76-3.37.02-.32.05-.65.05-.98,0-.82-.08-1.62-.24-2.4-1.12-5.62-6.09-9.88-12.04-9.88h.02Z" fill="#572a06"/>
      <path d="M120.68,95.45c-5.95,0-10.92,4.25-12.04,9.88-.16.78-.24,1.58-.24,2.4,0,.33.02.65.05.98.09,1.18.36,2.31.76,3.37,1.76,4.63,6.23,7.92,11.46,7.92s9.7-3.3,11.46-7.92c.41-1.06.67-2.19.76-3.37.03-.32.05-.65.05-.98,0-.82-.08-1.62-.24-2.4-1.12-5.62-6.09-9.88-12.04-9.88h.02Z" fill="#572a06"/>
    </g>
    <rect x="62.9" y="25.98" width="39.89" height="47.69" rx="2.6" ry="2.6" fill="#8dc33c"/>
    <g>
      <line x1="102.79" y1="23.11" x2="102.79" y2="27.11" fill="none" stroke="#e00000" stroke-linecap="round" stroke-linejoin="round" stroke-width="6"/>
      <line x1="102.79" y1="37.75" x2="102.79" y2="69.17" fill="none" stroke="#e00000" stroke-dasharray="7.73 10.63" stroke-linecap="round" stroke-linejoin="round" stroke-width="6"/>
      <line x1="102.79" y1="74.49" x2="102.79" y2="78.49" fill="none" stroke="#e00000" stroke-linecap="round" stroke-linejoin="round" stroke-width="6"/>
    </g>
  </g>
  <g>
    <path d="M64.62,17.78c-.24,0-.45-.11-.63-.33-.17-.22-.26-.48-.26-.77V4.78c0-.3.09-.55.26-.77.18-.22.38-.33.63-.33h.43c.24,0,.46.11.63.33.18.22.27.48.27.77v4.38c0,.1.04.15.13.15h4.45c.08,0,.13-.05.13-.15v-4.38c0-.3.09-.55.27-.77.18-.22.39-.33.63-.33h.43c.24,0,.45.11.63.33.17.22.26.48.26.77v11.9c0,.3-.09.55-.26.77-.18.22-.38.33-.63.33h-.43c-.24,0-.46-.11-.63-.33-.18-.22-.27-.48-.27-.77v-5.12c0-.12-.04-.17-.13-.17h-4.45c-.08,0-.13.06-.13.17v5.12c0,.3-.09.55-.27.77-.18.22-.39.33-.63.33h-.43Z" fill="#e00000"/>
    <path d="M75.23,17.78c-.22,0-.4-.11-.52-.33-.13-.22-.15-.46-.08-.71l3.43-12.02c.1-.31.25-.56.48-.75.22-.19.47-.29.73-.29h.57c.28,0,.52.1.75.29.22.19.38.44.46.75l3.43,12.02c.07.26.05.5-.08.71-.13.22-.3.33-.52.33h-.57c-.27,0-.5-.1-.71-.29s-.36-.44-.45-.75l-.54-2.2c-.01-.1-.07-.15-.17-.15h-3.81c-.1,0-.15.05-.17.15l-.54,2.2c-.07.31-.22.56-.43.75s-.46.29-.73.29h-.53ZM79.51,6.07l-1.49,6.08s.01.07.03.11c.02.03.05.05.08.05h2.8s.06-.02.08-.05c.02-.03.03-.07.02-.11l-1.48-6.08s0-.02-.02-.02c0,0-.02,0-.02.02Z" fill="#e00000"/>
    <path d="M87.13,17.78c-.24,0-.45-.11-.63-.33-.17-.22-.26-.48-.26-.77V4.78c0-.3.09-.55.26-.77.18-.22.38-.33.63-.33h.51c.24,0,.46.11.63.33.18.22.27.48.27.77v10.59c0,.12.04.17.13.17h4.08c.24,0,.45.11.63.32.18.21.26.47.26.76v.06c0,.3-.09.55-.26.77-.17.22-.38.33-.63.33,0,0-5.62,0-5.62,0Z" fill="#e00000"/>
    <path d="M96.64,17.78c-.24,0-.45-.11-.63-.33-.17-.22-.26-.48-.26-.77V4.78c0-.3.09-.55.26-.77.18-.22.38-.33.63-.33h5.24c.24,0,.46.11.64.33.18.22.27.48.27.77s-.09.55-.27.76c-.18.21-.39.32-.64.32h-3.78c-.08,0-.13.06-.13.17v3.38c0,.1.04.15.13.15h3.51c.23,0,.43.1.6.3s.25.45.25.74-.08.54-.25.74-.37.3-.6.3h-3.51c-.08,0-.13.05-.13.15v4.87c0,.3-.09.55-.27.77-.18.22-.39.33-.63.33h-.43v.02Z" fill="#e00000"/>
  </g>
</svg>