<?xml version="1.0" encoding="UTF-8"?>
<svg id="_レイヤー_1" data-name="レイヤー_1" xmlns="http://www.w3.org/2000/svg" version="1.1" viewBox="0 0 110 100">
  <!-- Generator: Adobe Illustrator 29.6.1, SVG Export Plug-In . SVG Version: 2.1.1 Build 9)  -->
  <path d="M79.48,73.38c0-7.81-7.77-14.15-17.36-14.15-9.59,0-17.36,6.33-17.36,14.15,0,7.82,7.77,14.15,17.36,14.15,9.59,0,17.36-6.34,17.36-14.15" fill="#fff"/>
  <path d="M24.35,36.02c.26,2.11.52,3.42.52,3.42,1.72-1.42,3.58-2.67,5.54-3.74,2.03-1.12,4.14-2.09,6.32-2.91,11.26-4.29,25.03-5.6,35.68-6.08,2.33-.11,4.52-.17,6.49-.22h.38s.67-.03.67-.03c2.14-.05,4-.09,5.49-.14h.21s.18-.02.18-.02c7.79-.33,8.05-2.63,1.96-3.67-.14-.02-.28-.05-.42-.07-2.29-.32-4.6-.47-6.92-.44h-.41c-.4,0-.81,0-1.23.02-.61-2.26-1.4-4.47-2.37-6.61C68.47-1.87,52.95.22,52.95.22c0,0-12.48-.24-21.98,6.61-2.52,1.95-4.38,4.63-5.32,7.67-.7,2.06-1.19,4.18-1.45,6.33-.22,1.71-.34,3.43-.38,5.15-.01.46-.02.92-.02,1.37,0,.73.01,1.45.04,2.15.09,2.53.3,4.79.52,6.52M48.82,12.37l3,.3c.43.04.62-.07.67-.4l.16-1.14s.08.04.12.06c.59.42,1.17.83,1.76,1.24.44.31.88.63,1.33.94.16.13.37.17.57.11.21-.07.21-.23.2-.39,0-.08-.03-.15-.06-.23-.61-1.39-1.22-2.8-1.85-4.23-.09-.2-.16-.4-.26-.64.6.21,1.13.39,1.67.58.56.2.85.11,1.04-.31.2-.46.4-.92.6-1.37.26-.59.52-1.19.78-1.8.86,1.03,1.69,2.02,2.51,3,.22.33.66.41.99.19,0,0,0,0,0,0,.39-.21.78-.42,1.16-.63.07-.03.14-.06.23-.11,0,.05.01.1.02.15-.04.8-.08,1.6-.13,2.39-.04.78-.09,1.55-.12,2.32,0,.21,0,.46.31.54s.47-.11.61-.28l1.85-2.22c.04-.05.09-.1.16-.17.2.38.37.73.55,1.08.11.25.4.36.65.26.57-.15,1.13-.29,1.69-.44.35-.09.7-.18,1.08-.27,0,.08,0,.13-.01.17-.07.41-.14.81-.21,1.22-.08.47-.16.95-.24,1.43-.05.31.03.4.38.5s.69.21,1.07.32c-.09.07-.15.12-.21.18-1.38,1.19-2.77,2.38-4.16,3.58-.26.15-.35.48-.2.74.01.02.03.05.04.07.19.32.36.65.55,1-.11,0-.19.01-.27.01h-1.02l-3.72.03c-.33,0-.5.15-.45.41.12.58.24,1.15.37,1.73l.36,1.69c.05.25.08.43.13.7l-.83.09-.33-2.53-.22-1.7c-.02-.19-.28-.3-.54-.25l-4.02.78c-.36.07-.73.14-1.13.21.07-.41.13-.79.2-1.17.06-.32-.09-.54-.46-.71-1.87-.9-3.77-1.82-5.71-2.76-.21-.09-.43-.18-.64-.27v-.04c.38-.19.77-.38,1.16-.57.16-.04.25-.21.21-.36,0-.02,0-.03-.02-.05-.03-.08-.07-.15-.11-.22-.45-.77-.92-1.56-1.38-2.34-.09-.14-.16-.29-.25-.46.15.01.26.01.36.02" fill="gold"/>
  <path d="M16.18,52.84c.95,0,1.91-.1,2.84-.28-.79,3.16-1.19,6.4-1.19,9.66,0,18.41,8.27,31.47,24.7,35.48,13.59,3.32,33.84,3.45,47.02-4.09,14.25-8.15,20.16-29.14,12.38-46.49-.89-1.98-1.94-3.88-3.16-5.68,7.43-3,11.02-11.46,8.02-18.89-3-7.43-11.46-11.02-18.89-8.02-3.51,1.42-6.32,4.15-7.84,7.61h.41c2.31-.03,4.63.12,6.92.44.15.02.28.05.42.07,2.94-3.03,7.78-3.11,10.81-.17,3.03,2.94,3.11,7.78.17,10.81-1.29,1.33-3.01,2.14-4.85,2.3-2.44-2.4-5.17-4.49-8.12-6.21-.09-.47-.14-.94-.14-1.42,0-.55.06-1.1.18-1.64h-.18s-.21.02-.21.02c-1.49.05-3.35.09-5.49.14l-.67.02h-.38c-1.97.06-4.16.13-6.49.23-10.65.48-24.42,1.79-35.68,6.08-2.17.82-4.28,1.79-6.32,2.91-1.96,1.07-3.81,2.32-5.53,3.74,0,0-.26-1.31-.52-3.42-.27-2.16-.44-4.34-.52-6.52-.04-1.17-.05-2.35-.02-3.53-1.98-1.24-4.24-1.97-6.57-2.14-.35-.02-.7-.04-1.06-.04-2.3,0-4.56.55-6.6,1.6C2.44,29.07-.36,37.83,3.31,44.97c2.48,4.82,7.44,7.86,12.87,7.88M76.35,53.82c2.33,0,4.23,1.88,4.24,4.21s-1.88,4.23-4.21,4.24-4.23-1.88-4.24-4.21c0,0,0-.01,0-.02,0-2.33,1.88-4.22,4.21-4.22M79.05,73.38c0,7.62-7.58,13.8-16.93,13.8s-16.93-6.18-16.93-13.8,7.58-13.8,16.93-13.8,16.93,6.18,16.93,13.8M46.73,53.99c2.33,0,4.23,1.88,4.24,4.21,0,2.33-1.88,4.23-4.21,4.24-2.33,0-4.23-1.88-4.24-4.21,0,0,0,0,0-.01,0-2.33,1.88-4.22,4.21-4.22,0,0,0,0,0,0M10.19,33.54c1.41-1.79,3.54-2.86,5.82-2.91.05,0,.11,0,.16,0,4.23-.02,7.68,3.4,7.69,7.63.02,4.23-3.4,7.68-7.63,7.69s-7.68-3.4-7.69-7.63c0-1.73.57-3.42,1.65-4.78" fill="#ef8337"/>
  <path d="M16.18,45.94c-4.09-.05-7.43-3.31-7.56-7.4-.14-4.23,3.17-7.77,7.4-7.91.05,0,.11,0,.16,0,4.23,0,7.66,3.43,7.66,7.66,0,4.23-3.43,7.66-7.66,7.66" fill="#6a3906"/>
  <path d="M93.92,35.59c-2.44-2.4-5.17-4.49-8.12-6.21-.19-1.01-.18-2.05.04-3.05,7.8-.33,8.05-2.63,1.96-3.67,1.3-1.36,3.06-2.19,4.93-2.33,4.22-.33,7.9,2.82,8.23,7.04.33,4.22-2.82,7.9-7.04,8.23" fill="#6a3906"/>
  <path d="M46.73,62.43s0,0,0,0c-2.33,0-4.21-1.9-4.21-4.22,0,0,0,0,0-.01,0-2.33,1.9-4.22,4.24-4.21,2.33,0,4.22,1.9,4.21,4.24,0,2.33-1.9,4.22-4.24,4.21" fill="#6a3906"/>
  <path d="M76.35,62.27c-2.33,0-4.21-1.89-4.21-4.22,0,0,0,0,0-.01,0-2.33,1.9-4.22,4.24-4.21s4.22,1.9,4.21,4.24c0,2.33-1.9,4.22-4.24,4.21" fill="#6a3906"/>
  <path d="M61.26,80.4c.94-.19,1.86.42,2.04,1.36s-.42,1.86-1.36,2.04c-.51.1-1.04.15-1.56.15-2.73-.1-5.34-1.11-7.41-2.88-3.05-2.46-4.81-6.19-4.78-10.11,0-.03,0-.05,0-.08.02-.96.81-1.71,1.77-1.69s1.71.81,1.69,1.77c-.02,2.88,1.27,5.61,3.51,7.42,1.9,1.56,4.35,2.37,6.1,2.01" fill="#6a3906"/>
  <path d="M63.01,66h0c0-2.85,2.3-5.16,5.15-5.16,2.84,0,5.14,2.29,5.15,5.13,0,2.84-2.29,5.16-5.13,5.16s-5.16-2.29-5.16-5.13" fill="#6a3906"/>
  <path d="M50.09,15.15c-.46-.77-.92-1.56-1.38-2.34-.09-.14-.16-.29-.25-.46.16.01.26.02.36.03,1.01.1,2.01.2,3,.3.43.04.62-.07.67-.4.05-.37.1-.75.16-1.14.04.02.08.04.12.06l1.76,1.24c.44.31.89.63,1.33.94.16.13.37.17.57.11.21-.07.21-.23.2-.39,0-.08-.03-.15-.06-.23-.61-1.39-1.23-2.8-1.85-4.23-.09-.2-.17-.4-.26-.63.6.21,1.14.39,1.67.58.56.2.85.11,1.04-.31.2-.46.4-.92.59-1.37l.79-1.8,2.53,3.02s0,0,0,0c.22.32.67.41.99.18.39-.21.78-.42,1.17-.62.07-.04.14-.06.23-.11,0,.05.01.1.01.14-.04.8-.08,1.6-.12,2.39-.04.78-.09,1.55-.12,2.32,0,.21,0,.46.31.54s.47-.11.61-.28c.62-.74,1.23-1.48,1.85-2.22.04-.05.09-.1.16-.17.2.39.37.73.55,1.08.11.25.4.36.65.26l1.69-.44c.35-.09.7-.18,1.08-.27,0,.08,0,.13-.01.18-.07.41-.14.81-.21,1.22-.08.48-.17.95-.24,1.43-.05.31.03.4.38.5s.69.21,1.07.32c-.09.07-.15.12-.21.18l-4.16,3.58s-.05.03-.07.05c-.23.18-.27.52-.09.76.18.33.36.65.55,1-.11,0-.19.01-.27.01h-1.02c-1.23,0-2.47.02-3.72.03-.34,0-.51.15-.45.41.12.58.25,1.17.37,1.73l.36,1.69c.05.25.08.43.13.7l-.83.09-.33-2.53c-.07-.57-.15-1.13-.22-1.7-.03-.19-.28-.3-.54-.25l-4.02.78-1.13.21c.07-.41.13-.79.2-1.17.06-.32-.1-.54-.46-.71-1.86-.9-3.77-1.82-5.71-2.76-.21-.1-.42-.18-.64-.27v-.04c.38-.19.77-.38,1.16-.57.01,0,.03,0,.04-.02.15-.07.22-.24.15-.39-.03-.08-.07-.15-.11-.22" fill="#6a3906"/>
</svg>